<svg width="121" height="26" viewBox="0 0 121 26" fill="none" xmlns="http://www.w3.org/2000/svg">
<path fill-rule="evenodd" clip-rule="evenodd" d="M116.941 11.5256C117.113 4.95898 110.169 -0.113043 102.073 1.23247C100.009 1.6869 98.4238 3.01549 97.743 4.54748C97.1394 5.9058 97.2327 7.44194 98.374 8.75501C98.2016 8.36019 98.106 7.92417 98.106 7.46581C98.106 5.6849 99.5497 4.24119 101.331 4.24119C103.112 4.24119 104.555 5.6849 104.555 7.46581C104.555 7.66325 104.538 7.85652 104.504 8.04416C104.439 9.31669 103.697 10.3042 102.645 10.7963C101.3 11.4252 99.5106 11.2208 98.1002 9.92956C96.2336 8.22048 95.9747 6.0192 96.8125 4.13394C97.638 2.27637 99.5105 0.749593 101.868 0.234927L101.88 0.232239L101.893 0.230163C105.078 -0.301657 108.157 0.111724 110.754 1.22678C116.263 3.24089 118.997 6.62915 119.897 9.98576C120.968 13.9788 119.451 18.0443 117.515 20.5092L117.51 20.5149L117.505 20.5205C113.378 25.4731 98.9276 31.1272 73.1617 17.4222C71.3186 16.7496 69.4534 16.0537 67.5693 15.3507L67.5684 15.3504L67.5666 15.3497C65.2294 14.4778 62.8632 13.5949 60.4742 12.7322C48.4986 8.40749 35.9008 4.56373 23.2751 4.91985C19.9382 5.01397 14.3514 5.63378 9.61629 7.28717C7.24788 8.11417 5.12813 9.1877 3.60846 10.5543C2.10368 11.9075 1.20337 13.5304 1.19756 15.4965C1.21016 15.6577 1.22788 15.8182 1.25065 15.9776C1.2834 16.1614 1.3189 16.3447 1.35668 16.5274L1.35053 16.5286C1.62883 17.7918 2.23205 18.9553 3.12482 19.8278C4.25093 20.9285 5.86417 21.5938 7.95673 21.3932C8.17942 21.3719 8.40816 21.342 8.64299 21.3031C9.46895 21.1197 10.1878 20.6529 10.7106 20.0462C10.2158 20.3554 9.63101 20.534 9.00451 20.534C7.2236 20.534 5.77989 19.0903 5.77989 17.3094C5.77989 15.5285 7.2236 14.0848 9.00451 14.0848C9.87256 14.0848 10.6605 14.4278 11.2402 14.9856C12.6566 16.1161 12.8884 17.7729 12.37 19.2048C11.8428 20.6607 10.5311 21.9331 8.84816 22.3006C8.58408 22.3582 8.31427 22.3951 8.04117 22.4081C5.66508 22.6325 3.75766 21.8703 2.41304 20.5561C1.21637 19.3864 0.48676 17.8016 0.245406 16.1409C-0.172507 13.784 -0.189817 11.172 1.27126 8.76119C2.85501 6.14801 6.10253 3.89028 12.1057 2.3895C15.2732 1.59762 39.1667 -2.38229 72.3842 15.8447C72.7831 16.0636 73.1793 16.2779 73.5726 16.4875C80.8113 19.1288 87.6428 21.387 93.9364 22.3035C98.4986 22.9678 102.901 22.7691 107.371 21.6428C109.969 20.9884 112.329 19.8761 114.052 18.2254C115.764 16.5852 116.867 14.3961 116.941 11.5256Z" fill="#EAECEE"/>
</svg>
