<svg width="140" height="140" viewBox="0 0 140 140" fill="none" xmlns="http://www.w3.org/2000/svg">
<g clip-path="url(#clip0_1_703)">
<path d="M77.9989 54.7159C74.17 48.6497 71.6485 41.3111 70.6274 33.3455C69.8444 27.2061 69.1857 16.04 69.5224 14.37C70.047 11.768 65.598 9.77983 64.5801 14.8286C64.0555 17.4307 59.3009 32.1936 52.2724 40.1934C45.6019 47.8206 43.2525 49.651 39.4985 50.4299C37.3534 50.8462 37.5389 51.5298 40.1394 53.0645C46.5669 56.8661 48.5072 63.2792 50.3125 86.5991C51.3792 100.151 53.7101 100.217 58.3927 86.8136C63.0208 73.4801 73.0736 59.3002 78.3503 58.5858C80.0911 58.371 80.0451 57.9979 77.9989 54.7159ZM56.692 76.2052L55.2494 79.5517C55.1032 78.6735 54.5171 60.7322 48.334 54.7166C46.6427 53.0823 46.3949 52.507 47.5212 52.7341C51.133 53.4622 58.6983 45.005 62.2706 36.1064C63.9397 32.0376 64.0875 31.9057 64.5648 34.7502C65.5267 40.8043 67.9104 46.8218 71.6541 52.7093L74.1033 56.5983C73.5743 57.0171 64.1471 58.6726 56.692 76.2052Z" fill="#E5E5E5"/>
<path d="M96.7768 106.112C91.6817 99.9119 88.9928 90.1959 90.457 82.9334C91.099 79.7488 87.6019 75.2443 84.1852 83.9723C79.9805 94.8046 78.0804 97.6143 72.807 101.118C68.4749 103.963 68.483 103.722 72.7764 105.881C76.7747 107.899 78.7929 114.127 78.8233 124.6C78.8442 131.111 83.4111 132.315 84.8894 125.985C86.9699 117.068 90.0384 112.473 95.2938 110.461C98.6291 109.153 98.8242 108.586 96.7768 106.112ZM91.7014 107.231C90.2481 107.423 85.9088 109.903 84.7725 111.129C83.2081 112.874 83.2469 112.882 82.3261 110.433C81.5369 108.334 79.1944 105.72 77.4396 105.002C76.1041 104.41 76.1585 104.34 78.8574 102.581C80.1562 101.751 82.1015 99.9204 83.1915 98.5235C85.6203 95.4971 85.3794 95.4893 86.5091 98.5057C87.3836 100.784 89.0345 103.42 91.2526 106.049C91.8887 106.703 92.0355 107.178 91.7014 107.231Z" fill="#E5E5E5"/>
</g>
<defs>
<clipPath id="clip0_1_703">
<rect width="118.434" height="118.434" fill="white" transform="translate(23.4898) scale(1.00355) rotate(11.3987)"/>
</clipPath>
</defs>
</svg>
