<svg width="48" height="48" viewBox="0 0 48 48" fill="none" xmlns="http://www.w3.org/2000/svg">
<g clip-path="url(#clip0_1_1091)">
<path d="M23.7658 15.7864C22.3149 14.355 20.1177 13.7931 18.0649 14.5402L11.4666 16.9419L10.3992 14.0093L27.9948 7.60493L29.0621 10.5375L24.282 12.2774C25.2954 12.8717 26.1862 13.6766 26.889 14.6496L30.1295 13.4701L31.1969 16.4027L28.235 17.4808C29.3628 21.7198 27.0765 26.2052 22.8682 27.7369L21.7978 28.1265L35.4018 34.7988L31.3402 36.2772L17.7361 29.6049L16.6687 26.6723L21.8008 24.8043C24.3815 23.865 25.8285 21.1796 25.2731 18.5589L13.6013 22.8071L12.534 19.8745L23.7658 15.7864Z" fill="#BFA054"/>
</g>
<defs>
<clipPath id="clip0_1_1091">
<rect y="12.8088" width="37.4497" height="37.4497" transform="rotate(-20.0003 0 12.8088)" fill="white"/>
</clipPath>
</defs>
</svg>
