<svg width="80" height="71" viewBox="0 0 80 71" fill="none" xmlns="http://www.w3.org/2000/svg">
<path fill-rule="evenodd" clip-rule="evenodd" d="M62.5296 8.67256C59.5075 5.65481 52.7081 2.52519 51.2441 2.23263C50.6076 2.10555 49.26 1.83057 47.8943 1.55189C46.5134 1.27011 45.114 0.984552 44.4124 0.84429C40.1204 -0.0127756 34.9627 -0.364782 30.6501 0.496497C29.5222 0.721777 28.407 0.904774 27.3053 1.08556C23.4211 1.72292 19.7041 2.33285 16.1911 4.67136C11.7614 7.62051 10.0166 11.3603 8.02279 15.6336C7.57547 16.5924 7.11562 17.578 6.61012 18.5876C-0.248802 32.2852 -5.04046 55.2644 9.39738 66.0772C13.5025 69.1515 18.0721 69.2247 22.6811 69.2985C24.8793 69.3337 27.0864 69.3691 29.2564 69.7302C36.8082 70.987 46.602 71.4789 54.3422 70.4262C60.6006 69.5748 69.0683 63.4115 75.2466 56.3359C77.3924 53.8781 78.5714 49.1542 79.3434 46.0608C79.372 45.9464 79.4 45.8342 79.4275 45.7244C82.6854 32.7121 71.3648 17.4946 62.5296 8.67256Z" fill="#F7EDF0"/>
<g clip-path="url(#clip0_1_566)">
<path d="M53.5 42.63V47.934C53.5002 48.3138 53.3563 48.6795 53.0974 48.9573C52.8385 49.2351 52.4838 49.4044 52.105 49.431C51.4495 49.476 50.914 49.5 50.5 49.5C37.2445 49.5 26.5 38.7555 26.5 25.5C26.5 25.086 26.5225 24.5505 26.569 23.895C26.5956 23.5162 26.7649 23.1615 27.0427 22.9026C27.3205 22.6437 27.6862 22.4998 28.066 22.5H33.37C33.5561 22.4998 33.7355 22.5688 33.8736 22.6935C34.0116 22.8183 34.0984 22.9899 34.117 23.175C34.1515 23.52 34.183 23.7945 34.213 24.003C34.5111 26.0834 35.122 28.1067 36.025 30.0045C36.1675 30.3045 36.0745 30.663 35.8045 30.855L32.5675 33.168C34.5467 37.7797 38.2218 41.4548 42.8335 43.434L45.1435 40.203C45.2379 40.071 45.3757 39.9763 45.5327 39.9355C45.6898 39.8946 45.8562 39.9102 46.003 39.9795C47.9005 40.8808 49.9234 41.4902 52.003 41.787C52.2115 41.817 52.486 41.85 52.828 41.883C53.0129 41.902 53.1841 41.9889 53.3085 42.1269C53.433 42.2649 53.5017 42.4442 53.5015 42.63H53.5Z" fill="#9A2143"/>
</g>
<defs>
<clipPath id="clip0_1_566">
<rect width="36" height="36" fill="white" transform="translate(22 18)"/>
</clipPath>
</defs>
</svg>
