<svg width="71" height="71" viewBox="0 0 71 71" fill="none" xmlns="http://www.w3.org/2000/svg">
<g clip-path="url(#clip0_1_739)">
<path d="M6.53784 38.5441C7.61362 24.5735 18.5335 12.9244 32.9678 11.4073C47.402 9.89015 60.5026 19.0146 64.4622 32.456C63.3864 46.4265 52.4665 58.0757 38.0323 59.5928C23.598 61.1099 10.4974 51.9854 6.53784 38.5441ZM36.9068 48.8849C40.4567 48.5118 43.713 46.7437 45.9593 43.9698C48.2056 41.1958 49.258 37.6431 48.8849 34.0932C48.5118 30.5433 46.7437 27.287 43.9698 25.0407C41.1958 22.7944 37.6431 21.742 34.0932 22.1151C30.5433 22.4883 27.287 24.2563 25.0407 27.0302C22.7944 29.8042 21.742 33.3569 22.1151 36.9068C22.4882 40.4567 24.2563 43.713 27.0302 45.9593C29.8042 48.2056 33.3569 49.258 36.9068 48.8849ZM36.3441 43.5309C34.2142 43.7548 32.0825 43.1234 30.4181 41.7756C28.7538 40.4278 27.693 38.474 27.4691 36.3441C27.2452 34.2142 27.8766 32.0825 29.2244 30.4181C30.5722 28.7538 32.526 27.693 34.6559 27.4691C36.7859 27.2452 38.9175 27.8766 40.5819 29.2244C42.2463 30.5722 43.3071 32.526 43.5309 34.6559C43.7548 36.7859 43.1234 38.9175 41.7756 40.5819C40.4278 42.2462 38.474 43.3071 36.3441 43.5309Z" fill="white"/>
</g>
<defs>
<clipPath id="clip0_1_739">
<rect width="64" height="64" fill="white" transform="translate(0 6.75266) scale(1.00939) rotate(-6)"/>
</clipPath>
</defs>
</svg>
