<svg width="125" height="59" viewBox="0 0 125 59" fill="none" xmlns="http://www.w3.org/2000/svg">
<path fill-rule="evenodd" clip-rule="evenodd" d="M118.068 7.26974C99.9165 -3.83548 89.801 -2.52912 71.6974 13.3442C60.922 22.7878 55.8604 23.6133 42.662 18.136C28.7515 12.3384 22.6368 12.3288 14.3862 18.0868C10.3017 20.9332 3.68807 28.6416 1.12328 33.5082C-0.117764 35.8455 -0.328147 37.3748 0.480736 38.2789C1.88263 39.8266 13.5939 47.9637 22.7438 53.7323C26.3201 55.9823 26.4825 55.9788 28.6203 53.7198C33.9086 48.1252 37.3391 47.1392 42.438 49.8174C43.6244 50.4355 48.4815 52.9293 49.0315 53.2532C64.106 61.788 69.3119 60.6898 87.1839 45.2456C95.3335 38.1989 99.58 37.23 105.668 41.0774C106.42 41.5551 106.328 41.6758 108.497 38.038C109.294 36.701 113.294 31.0805 117.376 25.5216C127.436 11.8335 127.411 12.9944 118.068 7.26974ZM107.814 32.9572C104.374 38.1766 104.772 37.7792 103.521 37.0794C99.8972 35.0166 97.2607 35.0459 92.782 37.1133C89.9371 38.4184 86.0081 41.479 81.4137 45.9132C69.8692 57.0338 63.0044 57.6316 46.8352 49.027C40.6968 45.747 39.0495 45.0643 37.2348 45.019C32.3533 44.8979 29.5775 48.8703 26.4335 52.6573C26.4335 52.6573 21.31 49.2589 20.4827 48.7553C18.7425 47.6509 18.6187 47.939 22.1628 44.8398C27.2593 40.3742 30.5268 38.8495 35.1002 38.8312C39.8004 38.8139 42.5604 39.8353 54.126 45.9483C65.3988 51.9017 71.9727 49.679 86.1156 35.1523C95.6208 25.4093 100.967 23.8763 109.031 28.5612L110.247 29.266L107.814 32.9572ZM111.447 27.567C110.427 27.1074 108.3 26.2179 107.346 25.7132C98.576 21.1594 93.36 22.856 82.7096 33.7658C72.9335 43.7804 70.747 45.1414 64.0476 45.3552C60.7512 45.455 58.1141 44.9414 55.7258 43.7253C52.156 41.9266 57.5977 44.8663 43.4133 37.8396C33.4351 32.9057 22.9315 35.7653 17.2837 45.0076L16.59 46.1681C13.8188 44.6599 8.84533 40.8977 3.19103 37.3175C3.20641 37.2973 9.65124 27.9298 12.9698 24.4992C20.9926 16.2397 31.1607 15.3242 44.4382 21.659C56.1903 27.2767 64.1761 26.0036 74.0563 16.8974C85.6274 6.2435 92.9605 2.94208 102.671 4.00522C106.415 4.406 115.232 8.10336 119.613 11.0951L121.963 12.6963L111.447 27.567Z" fill="#E5E5E5"/>
</svg>
