<svg width="14" height="14" viewBox="0 0 14 14" fill="none" xmlns="http://www.w3.org/2000/svg">
<path fill-rule="evenodd" clip-rule="evenodd" d="M3.23107 7.53786C5.01554 7.53786 6.46214 8.98446 6.46214 10.7689V13.4615C6.46214 13.7589 6.70322 14 7.0006 14C7.29798 14 7.53906 13.7589 7.53906 13.4615V10.7683C7.53906 8.98419 8.98539 7.53786 10.7695 7.53786H13.4615C13.7589 7.53786 14 7.29678 14 6.9994C14 6.70202 13.7589 6.46094 13.4615 6.46094L10.7695 6.46094C8.98539 6.46094 7.53906 5.01461 7.53906 3.23047V0.538462C7.53906 0.241077 7.29799 0 7.0006 0C6.70322 0 6.46214 0.241078 6.46214 0.538462V3.23047C6.46214 5.01461 5.01581 6.46094 3.23167 6.46094L0.538462 6.46094C0.241078 6.46094 0 6.70201 0 6.9994C0 7.29678 0.241077 7.53786 0.538461 7.53786H3.23107Z" fill="white" fill-opacity="0.24"/>
</svg>
