<svg width="113" height="113" viewBox="0 0 113 113" fill="none" xmlns="http://www.w3.org/2000/svg">
<g opacity="0.5">
<path fill-rule="evenodd" clip-rule="evenodd" d="M34.8821 85.0576C32.4435 82.0669 30.294 76.5796 29.5921 74.646C24.8408 61.5577 25.2665 47.7701 28.9614 34.5083C30.1168 30.3609 30.4576 28.6273 32.273 24.7364C33.352 22.4236 35.8107 22.38 34.9395 26.8061C34.8532 30.4757 36.095 39.6303 35.6045 43.2688C36.2277 58.4977 36.2104 60.447 37.2605 66.0127C37.79 68.8193 37.941 71.8422 38.3092 76.7154C38.4102 78.0515 39.0619 80.7391 39.5132 82.128C40.2569 82.0342 40.3481 80.2944 40.3962 79.8643C40.7528 76.679 40.8479 73.3951 41.1432 70.1771C42.1324 59.3975 46.1993 48.9075 51.0938 39.3444C52.001 37.5718 56.0215 30.7944 58.7139 31.4967C60.532 31.9709 58.4116 39.4607 58.0799 40.6162C55.7818 48.6227 53.6987 56.7163 51.4675 64.7558C50.8529 66.9703 49.9194 69.0752 49.34 71.2964C48.5517 74.3187 47.6166 77.1966 46.7079 80.1758C46.6682 80.3061 45.9905 83.1565 46.5217 83.0896C47.3082 82.9904 48.0457 80.8628 48.3275 80.3407C49.8699 77.4827 51.9639 74.8112 53.9497 72.2528C60.4879 63.829 68.3188 56.7911 77.0014 50.7149C79.7201 48.8125 82.2788 47.5409 85.2909 46.2266C86.01 45.9129 88.3877 44.6527 89.0063 45.9429C89.7444 47.482 84.4626 53.6265 83.544 54.81C76.4044 64.0085 67.1251 71.7475 58.7778 79.823C56.6786 81.8541 54.42 83.7209 52.2605 85.687C50.101 87.6531 56.1911 84.8629 57.3699 84.3549C58.5488 83.8468 63.2336 81.3552 65.7784 79.9058C75.7604 74.2209 78.4704 69.9715 89.1473 65.6033C90.4548 65.0683 98.8852 61.6571 98.6738 64.5872C98.5318 66.5551 96.449 68.7201 95.3194 70.1754C92.1158 74.3029 88.3113 77.8867 83.994 80.8268C72.5512 88.6194 57.6363 98.3631 43.5182 91.4622C40.7575 90.1128 38.1481 89.0634 34.8821 85.0576Z" fill="#CF6F49"/>
</g>
</svg>
