<svg width="5" height="6" viewBox="0 0 5 6" fill="none" xmlns="http://www.w3.org/2000/svg">
<path d="M5 4.5H0V4H0.25V2.25775C0.25 1.01075 1.2575 0 2.5 0C3.7425 0 4.75 1.01075 4.75 2.25775V4H5V4.5ZM0.750001 4H4.25V2.25775C4.25 1.287 3.4665 0.5 2.5 0.5C1.5335 0.5 0.750001 1.287 0.750001 2.25775V4ZM1.875 4.75H3.125C3.125 4.91576 3.05915 5.07474 2.94194 5.19195C2.82473 5.30916 2.66576 5.375 2.5 5.375C2.33424 5.375 2.17527 5.30916 2.05806 5.19195C1.94085 5.07474 1.875 4.91576 1.875 4.75Z" fill="#1A1A1A"/>
</svg>
