<svg width="86" height="86" viewBox="0 0 86 86" fill="none" xmlns="http://www.w3.org/2000/svg">
<g opacity="0.5">
<path fill-rule="evenodd" clip-rule="evenodd" d="M37.2556 75.6692C32.7498 74.3987 29.2227 59.7221 27.7826 55.5296C25.683 49.4174 25.7061 49.4384 23.4824 43.3467C21.8361 38.8363 19.7479 34.0652 19.0728 29.3054C18.8865 27.9911 18.7498 24.6639 18.7116 23.8425C18.4978 19.2531 18.2611 13.8892 21.0047 9.92444C22.8593 7.24441 26.7646 7.78175 29.5253 8.64822C36.161 10.731 40.6029 16.5444 42.842 22.7317C44.0685 26.1209 44.4698 29.6178 45.0858 33.1362C45.253 34.091 45.4493 35.0411 45.6285 35.9939C45.7089 36.4226 45.772 36.8542 45.8645 37.2807C45.9245 37.5572 45.9771 37.8385 46.0856 38.1016C46.1301 38.2092 46.2204 38.4388 46.3146 38.3704C46.7395 38.0615 47.0221 37.6007 47.3413 37.1888C48.5353 35.6471 50.0057 33.2921 51.0522 31.8465C51.8842 30.6976 53.3313 29.0071 54.3627 28.0484C55.7185 26.7884 57.085 25.5335 58.5487 24.3925C60.0138 23.2502 61.5761 22.2275 63.1359 21.209C63.8725 20.728 64.6515 20.3092 65.432 19.8976C68.8191 18.1114 73.5684 16.3208 77.2269 18.6906C81.4765 21.4431 80.7393 27.4815 79.3655 31.4597C78.8954 32.8206 78.3976 34.1755 77.7965 35.4847C72.0757 47.9439 61.6632 57.5793 51.1717 66.2539C49.7058 67.466 40.0841 76.466 37.2556 75.6692Z" fill="#AF968F"/>
</g>
</svg>
