<svg width="64" height="64" viewBox="0 0 64 64" fill="none" xmlns="http://www.w3.org/2000/svg">
<g opacity="0.5">
<path fill-rule="evenodd" clip-rule="evenodd" d="M30.5754 29.9607C29.2954 28.4619 28.645 27.7491 25.6177 26.9207C22.9943 26.2029 20.522 27.1874 20.522 29.9607C16.4966 29.9607 16.6827 31.4639 18.6009 32.5741C20.519 33.6843 21.6154 34.4407 22.8354 36.2678C22.5484 37.5998 19.4872 38.6121 18.6009 39.1136C15.0826 41.1035 11.7901 44.1361 8.78698 46.7752C6.62447 48.6751 6.03206 56.3952 5.7833 59.3089C5.6854 60.4483 5.70211 60.5185 5.46538 61.6223C5.1868 62.9081 5.41052 64.4178 6.57871 63.076C7.36114 62.1773 7.52666 62.2421 8.23193 61.6223C10.023 60.0478 11.293 57.3562 13.1932 55.6869C16.7044 52.6007 20.7255 49.8662 25.6177 48.4456C28.8329 47.5118 32.2616 47.2402 35.4 46.0649C37.129 45.4181 38.8047 44.6231 40.6379 44.2643C40.8774 44.2174 42.214 43.7414 42.4324 43.9131C44.7007 45.7045 47.5298 48.3263 50.216 49.6815C50.6486 49.9004 52.2515 51.3002 52.5193 51.2478C52.9853 51.1566 53.6502 49.0515 53.875 48.655C55.0827 46.5249 57.1568 44.474 58.264 42.5212C58.4526 42.1886 56.2638 40.9416 56.0602 40.7808C54.228 39.3338 50.3295 37.3982 48.1145 36.9054C47.7018 36.8139 44.7068 36.4816 44.8449 35.8396C45.406 33.23 47.0871 31.1238 47.6598 28.4619C48.8207 23.0667 49.7224 16.5961 50.772 11.7181C50.966 10.8165 52.224 9.7674 52.7978 9.14985C54.2815 7.55031 55.5219 5.65569 56.8208 3.86319C57.029 3.57472 58.6147 1.61643 58.4915 1.51913C56.1482 -0.331514 42.388 3.41293 40.3185 5.23158C37.3634 7.82848 37.3285 18.5369 35.4 23.3154C34.436 25.7041 33.6583 28.0409 30.5754 29.9607Z" fill="#665F4F"/>
</g>
</svg>
