<svg width="9" height="8" viewBox="0 0 9 8" fill="none" xmlns="http://www.w3.org/2000/svg">
<path d="M7.99997 0.888886H0.888886V7.11109L5.01865 2.98043C5.10199 2.89711 5.21502 2.85031 5.33287 2.85031C5.45072 2.85031 5.56375 2.89711 5.64709 2.98043L7.99997 5.33776V0.888886ZM0 0.441332C0.00081335 0.324611 0.0475111 0.212896 0.130005 0.130319C0.2125 0.0477411 0.324168 0.000930952 0.440887 0H8.44797C8.69153 0 8.88886 0.197777 8.88886 0.441332V7.55864C8.88805 7.67536 8.84135 7.78708 8.75885 7.86965C8.67636 7.95223 8.56469 7.99904 8.44797 7.99997H0.440887C0.323916 7.99986 0.211776 7.95331 0.129106 7.87055C0.0464363 7.7878 -5.93132e-08 7.67561 0 7.55864V0.441332ZM2.66666 3.55554C2.43091 3.55554 2.20482 3.46189 2.03812 3.29519C1.87142 3.1285 1.77777 2.9024 1.77777 2.66666C1.77777 2.43091 1.87142 2.20482 2.03812 2.03812C2.20482 1.87142 2.43091 1.77777 2.66666 1.77777C2.9024 1.77777 3.1285 1.87142 3.29519 2.03812C3.46189 2.20482 3.55554 2.43091 3.55554 2.66666C3.55554 2.9024 3.46189 3.1285 3.29519 3.29519C3.1285 3.46189 2.9024 3.55554 2.66666 3.55554Z" fill="white"/>
</svg>
