<svg width="44" height="44" viewBox="0 0 44 44" fill="none" xmlns="http://www.w3.org/2000/svg">
<g clip-path="url(#clip0_1_1085)">
<path d="M1.95533 37.8196L5.1247 29.4317L17.1193 30.2705L19.0904 39.0178L1.95533 37.8196ZM22.5175 39.2574L25.6868 30.8696L37.6814 31.7083L39.6526 40.4556L22.5175 39.2574ZM11.3616 26.4241L14.531 18.0362L26.5256 18.875L28.4967 27.6223L11.3616 26.4241ZM41.5637 13.1251L34.819 14.5303L32.4887 21.0139L31.0835 14.2691L24.6 11.9389L31.3447 10.5337L33.6749 4.0501L35.0802 10.7949L41.5637 13.1251Z" fill="#BFA054"/>
<path d="M34.819 14.5303L41.5637 13.1251L35.0802 10.7949L33.6749 4.0501L31.3447 10.5337L24.6 11.9389L31.0835 14.2691L32.4887 21.0139L34.819 14.5303Z" fill="#BFA054"/>
</g>
<defs>
<clipPath id="clip0_1_1085">
<rect width="40.5159" height="40.5159" fill="white" transform="translate(2.8757) scale(1.01749) rotate(4)"/>
</clipPath>
</defs>
</svg>
