<svg width="310" height="445" viewBox="0 0 310 445" fill="none" xmlns="http://www.w3.org/2000/svg">
<g filter="url(#filter0_dddd_1_716)">
<mask id="path-1-inside-1_1_716" fill="white">
<path fill-rule="evenodd" clip-rule="evenodd" d="M307.71 43.5228C308.636 30.2852 298.655 18.8036 285.417 17.878L53.7189 1.67606C40.4813 0.750398 28.9997 10.7312 28.074 23.9688L1.67606 401.477C0.750399 414.715 10.7312 426.196 23.9688 427.122L255.667 443.324C268.905 444.25 280.386 434.269 281.312 421.031L307.71 43.5228ZM166.206 57.7699C172.879 58.2366 178.667 53.2053 179.134 46.5323C179.6 39.8592 174.569 34.0714 167.896 33.6048C161.223 33.1382 155.435 38.1695 154.968 44.8425C154.502 51.5155 159.533 57.3033 166.206 57.7699Z"/>
</mask>
<path fill-rule="evenodd" clip-rule="evenodd" d="M307.71 43.5228C308.636 30.2852 298.655 18.8036 285.417 17.878L53.7189 1.67606C40.4813 0.750398 28.9997 10.7312 28.074 23.9688L1.67606 401.477C0.750399 414.715 10.7312 426.196 23.9688 427.122L255.667 443.324C268.905 444.25 280.386 434.269 281.312 421.031L307.71 43.5228ZM166.206 57.7699C172.879 58.2366 178.667 53.2053 179.134 46.5323C179.6 39.8592 174.569 34.0714 167.896 33.6048C161.223 33.1382 155.435 38.1695 154.968 44.8425C154.502 51.5155 159.533 57.3033 166.206 57.7699Z" fill="white"/>
<path d="M53.649 2.67476L285.347 18.8767L285.487 16.8793L53.7887 0.677361L53.649 2.67476ZM2.67476 401.547L29.0727 24.0386L27.0753 23.8989L0.677361 401.407L2.67476 401.547ZM255.737 442.325L24.0386 426.123L23.8989 428.121L255.597 444.323L255.737 442.325ZM306.711 43.453L280.313 420.961L282.311 421.101L308.709 43.5927L306.711 43.453ZM178.135 46.4624C177.707 52.5839 172.397 57.1993 166.276 56.7712L166.136 58.7686C173.361 59.2738 179.627 53.8267 180.132 46.6021L178.135 46.4624ZM167.826 34.6035C173.948 35.0315 178.563 40.341 178.135 46.4624L180.132 46.6021C180.637 39.3775 175.19 33.1113 167.966 32.6061L167.826 34.6035ZM155.967 44.9123C156.395 38.7909 161.705 34.1754 167.826 34.6035L167.966 32.6061C160.741 32.1009 154.475 37.548 153.97 44.7726L155.967 44.9123ZM166.276 56.7712C160.154 56.3432 155.539 51.0338 155.967 44.9123L153.97 44.7726C153.465 51.9972 158.912 58.2634 166.136 58.7686L166.276 56.7712ZM255.597 444.323C269.386 445.287 281.346 434.89 282.311 421.101L280.313 420.961C279.426 433.647 268.423 443.212 255.737 442.325L255.597 444.323ZM0.677361 401.407C-0.286871 415.197 10.1098 427.156 23.8989 428.121L24.0386 426.123C11.3526 425.236 1.78767 414.233 2.67476 401.547L0.677361 401.407ZM285.347 18.8767C298.033 19.7638 307.598 30.767 306.711 43.453L308.709 43.5927C309.673 29.8035 299.276 17.8435 285.487 16.8793L285.347 18.8767ZM53.7887 0.677361C39.9995 -0.286871 28.0395 10.1098 27.0753 23.8989L29.0727 24.0386C29.9598 11.3526 40.963 1.78767 53.649 2.67476L53.7887 0.677361Z" fill="#F1F1F1" mask="url(#path-1-inside-1_1_716)"/>
</g>
<defs>
<filter id="filter0_dddd_1_716" x="-7.39371" y="-0.385723" width="324.173" height="474.804" filterUnits="userSpaceOnUse" color-interpolation-filters="sRGB">
<feFlood flood-opacity="0" result="BackgroundImageFix"/>
<feColorMatrix in="SourceAlpha" type="matrix" values="0 0 0 0 0 0 0 0 0 0 0 0 0 0 0 0 0 0 127 0" result="hardAlpha"/>
<feOffset dy="1"/>
<feGaussianBlur stdDeviation="1.5"/>
<feColorMatrix type="matrix" values="0 0 0 0 0.431373 0 0 0 0 0.431373 0 0 0 0 0.431373 0 0 0 0.1 0"/>
<feBlend mode="normal" in2="BackgroundImageFix" result="effect1_dropShadow_1_716"/>
<feColorMatrix in="SourceAlpha" type="matrix" values="0 0 0 0 0 0 0 0 0 0 0 0 0 0 0 0 0 0 127 0" result="hardAlpha"/>
<feOffset dy="5"/>
<feGaussianBlur stdDeviation="2.5"/>
<feColorMatrix type="matrix" values="0 0 0 0 0.431373 0 0 0 0 0.431373 0 0 0 0 0.431373 0 0 0 0.09 0"/>
<feBlend mode="normal" in2="effect1_dropShadow_1_716" result="effect2_dropShadow_1_716"/>
<feColorMatrix in="SourceAlpha" type="matrix" values="0 0 0 0 0 0 0 0 0 0 0 0 0 0 0 0 0 0 127 0" result="hardAlpha"/>
<feOffset dy="12"/>
<feGaussianBlur stdDeviation="3.5"/>
<feColorMatrix type="matrix" values="0 0 0 0 0.431373 0 0 0 0 0.431373 0 0 0 0 0.431373 0 0 0 0.05 0"/>
<feBlend mode="normal" in2="effect2_dropShadow_1_716" result="effect3_dropShadow_1_716"/>
<feColorMatrix in="SourceAlpha" type="matrix" values="0 0 0 0 0 0 0 0 0 0 0 0 0 0 0 0 0 0 127 0" result="hardAlpha"/>
<feOffset dy="22"/>
<feGaussianBlur stdDeviation="4.5"/>
<feColorMatrix type="matrix" values="0 0 0 0 0.431373 0 0 0 0 0.431373 0 0 0 0 0.431373 0 0 0 0.01 0"/>
<feBlend mode="normal" in2="effect3_dropShadow_1_716" result="effect4_dropShadow_1_716"/>
<feBlend mode="normal" in="SourceGraphic" in2="effect4_dropShadow_1_716" result="shape"/>
</filter>
</defs>
</svg>
