<svg width="149" height="120" viewBox="0 0 149 120" fill="none" xmlns="http://www.w3.org/2000/svg">
<g opacity="0.5">
<path d="M123.888 71.3847C123.612 70.5948 122.22 67.1321 119.151 65.1803C117.12 63.8888 114.823 63.0636 112.593 62.1604C110.983 61.5086 103.912 59.4317 101.874 57.9351C95.2631 53.0815 92.6157 44.1614 84.9971 40.3474C79.0289 37.3599 72.3178 40.3278 66.0484 39.4036C58.467 38.2856 52.5918 32.6796 45.2625 30.8969C40.9655 29.8517 37.4454 31.9629 33.3408 32.5847C28.294 33.349 28.448 32.213 23.4277 30.5108C22.0823 30.0546 20.3978 28.8984 19.2401 29.7214C17.6173 30.8754 19.0933 33.711 19.2615 35.6952C19.7205 41.1117 23.317 46.026 26.3223 50.2266C29.3685 54.4846 33.6919 59.4262 37.3937 63.2616C39.0443 64.9721 42.3301 68.5167 44.9093 69.7997C49.0457 71.8563 54.0616 71.0931 58.5952 71.9803C64.2433 73.0855 67.9744 78.214 73.7611 79.1912C78.5062 79.9924 83.0088 77.0096 87.7431 77.9468C92.7433 78.9363 96.8992 83.1009 102.197 82.9622C104.631 82.8985 107.05 82.5985 109.465 82.251L111.573 81.9403C114.353 81.5268 117.135 81.1231 119.938 81.0176C125.083 80.8239 129.046 84.0987 134.115 81.4433C136.529 80.1783 132.399 78.6506 132.036 78.516L132.026 78.5124C130.301 77.873 129.015 77.4688 127.407 76.5741C126.625 76.1389 124 71.7052 123.888 71.3847Z" fill="#E0B48F"/>
</g>
</svg>
