<svg width="5" height="6" viewBox="0 0 5 6" fill="none" xmlns="http://www.w3.org/2000/svg">
<path d="M4.5109 3.16498L0.308102 5.96685C0.278246 5.98672 0.243559 5.99811 0.207738 5.99983C0.171916 6.00154 0.1363 5.99351 0.104683 5.97658C0.0730663 5.95965 0.0466331 5.93447 0.0281985 5.9037C0.00976392 5.87294 1.85259e-05 5.83775 0 5.80189V0.198162C1.85259e-05 0.162299 0.00976392 0.127113 0.0281985 0.0963504C0.0466331 0.0655883 0.0730663 0.0404022 0.104683 0.0234749C0.1363 0.00654763 0.171916 -0.00148712 0.207738 0.000226509C0.243559 0.00194014 0.278246 0.0133381 0.308102 0.0332061L4.5109 2.83507C4.53805 2.85318 4.56032 2.87771 4.57572 2.90648C4.59111 2.93526 4.59917 2.96739 4.59917 3.00003C4.59917 3.03266 4.59111 3.0648 4.57572 3.09357C4.56032 3.12235 4.53805 3.14688 4.5109 3.16498Z" fill="white"/>
</svg>
