<svg width="176" height="73" viewBox="0 0 176 73" fill="none" xmlns="http://www.w3.org/2000/svg">
<path fill-rule="evenodd" clip-rule="evenodd" d="M12.2819 64.1201C9.19763 67.6571 6.53862 70.7064 4.31891 73L8.11655e-08 68.8203C1.96967 66.785 4.42634 63.9633 7.33946 60.6172C18.6513 47.6242 36.8456 26.726 60.133 13.2764C74.8934 4.75156 91.907 -0.94229 110.796 0.12933C129.706 1.20217 154.269 11.3535 175.954 29.3391C170.73 30.8621 165.161 31.3969 160.124 29.3376C144.706 23.035 125.194 6.96609 110.455 6.12993C93.0325 5.14147 77.1775 10.373 63.1389 18.481C40.8589 31.3488 23.671 51.0594 12.2819 64.1201Z" fill="#BFA054"/>
</svg>
