<svg width="64" height="51" viewBox="0 0 64 51" fill="none" xmlns="http://www.w3.org/2000/svg">
<path opacity="0.5" fill-rule="evenodd" clip-rule="evenodd" d="M62.5758 25.6231C60.649 31.2268 55.5131 36.1308 52.0184 40.9416C50.4053 43.1617 47.2286 49.0079 45.701 49.8888C43.0203 51.4347 42.3843 49.7236 42.2696 47.7958C42.1549 45.868 45.9973 38.2396 45.3263 35.871C44.9035 34.3787 43.4763 33.8983 41.4938 34.9002C41.0683 35.1152 38.283 37.6122 36.7083 38.6891C31.6048 42.1794 27.2583 46.3659 21.4729 48.9631C19.9182 49.661 16.8359 51.4929 15.0376 50.8745C12.1104 49.868 14.6211 45.4267 15.7568 44.3388C18.3879 41.8183 20.8321 39.156 23.6663 36.8005C25.2975 35.4447 27.2135 34.4935 28.8164 33.0864C29.7183 32.2947 32.6609 30.2216 31.638 28.6554C31.4832 28.4186 31.0781 28.6706 30.9295 28.7677C29.1919 29.9025 25.2196 30.9176 23.3294 31.8642C15.8146 34.4344 14.3827 35.4968 9.66819 36.0484C8.37515 36.0436 5.24247 35.9179 4.52447 34.4473C3.28935 31.9175 5.91031 30.5459 7.89493 29.5769C13.1091 27.0311 18.9518 25.6223 24.4287 23.6852C25.244 23.3969 30.3973 21.9441 30.3341 20.8798C30.2615 19.6609 25.3077 20.6812 24.3939 20.7424C18.2383 21.1543 11.6964 21.3361 5.68371 19.7518C4.69153 19.4903 -0.367113 18.5879 0.0211894 16.7369C0.566339 14.1395 4.69153 12.944 6.84641 12.6568C12.1598 11.9489 17.6093 12.8019 22.9631 12.4835C24.4807 12.3932 27.613 12.3747 28.7296 11.1167C30.0768 9.59912 26.3475 9.14925 25.5517 8.85171C22.5256 7.72007 18.8961 6.73759 16.242 4.87582C15.0853 4.06432 13.4802 3.47124 14.0419 1.83739C14.9079 -0.680877 20.8059 -0.00494056 22.6641 0.384924C29.6576 1.8525 36.249 4.76898 43.5124 5.02069C46.6713 5.13015 53.064 5.09255 55.7078 7.05794C61.0115 11.0007 64.8332 19.0584 62.5758 25.6231Z" fill="#8E5BE2"/>
</svg>
