<svg width="453" height="23" viewBox="0 0 453 23" fill="none" xmlns="http://www.w3.org/2000/svg">
<path d="M427.827 11.1876L-1.24516e-05 11.1876" stroke="#EAECEE" stroke-width="2"/>
<path d="M439.281 1.00194L438.371 0.582047C438.491 0.321767 438.717 0.125412 438.992 0.0426566C439.266 -0.0400985 439.563 -0.00132662 439.807 0.149164L439.281 1.00194ZM424.817 10.8148L424.664 11.8049C424.176 11.7291 423.815 11.3088 423.815 10.8148C423.815 10.3207 424.176 9.90041 424.664 9.82468L424.817 10.8148ZM439.329 21.3383L439.858 22.1893C439.612 22.3426 439.311 22.3814 439.033 22.2955C438.756 22.2096 438.529 22.0076 438.412 21.7417L439.329 21.3383ZM451.998 10.9274L452.681 10.1938C453.085 10.5696 453.109 11.2014 452.734 11.6069L451.998 10.9274ZM440.191 1.42183C436.884 8.58498 428.938 11.1894 424.971 11.8049L424.664 9.82468C428.421 9.2418 435.495 6.81242 438.371 0.582047L440.191 1.42183ZM424.971 9.82468C427.037 10.1452 430.026 11.0805 432.904 12.8383C435.787 14.5993 438.613 17.2201 440.247 20.935L438.412 21.7417C436.986 18.499 434.497 16.1591 431.86 14.5484C429.217 12.9343 426.48 12.0866 424.664 11.8049L424.971 9.82468ZM438.801 20.4874C443.488 17.5739 447.534 14.2873 451.262 10.2478L452.734 11.6069C448.876 15.7871 444.689 19.187 439.858 22.1893L438.801 20.4874ZM451.316 11.6609C446.842 7.49929 443.095 4.5317 438.755 1.85471L439.807 0.149164C444.288 2.91284 448.139 5.96891 452.681 10.1938L451.316 11.6609Z" fill="#EAECEE"/>
</svg>
