<svg width="451" height="23" viewBox="0 0 451 23" fill="none" xmlns="http://www.w3.org/2000/svg">
<path d="M26.9993 11.166H451" stroke="#EAECEE" stroke-width="2"/>
<path d="M13.6926 1L14.6006 0.580923C14.4807 0.321145 14.2553 0.125169 13.9813 0.0425742C13.7074 -0.040021 13.4112 -0.00132406 13.1677 0.148875L13.6926 1ZM28.1282 10.7939L28.2815 11.7821C28.7687 11.7065 29.1282 11.287 29.1282 10.7939C29.1282 10.3008 28.7687 9.88129 28.2815 9.8057L28.1282 10.7939ZM13.6441 21.2971L13.1163 22.1465C13.3625 22.2995 13.6629 22.3381 13.9398 22.2524C14.2167 22.1667 14.4428 21.9651 14.5595 21.6997L13.6441 21.2971ZM1 10.9062L0.318845 10.1741C-0.0843544 10.5492 -0.10837 11.1797 0.265126 11.5844L1 10.9062ZM12.7847 1.41908C16.0846 8.5684 24.0155 11.1678 27.9749 11.7821L28.2815 9.8057C24.5316 9.22395 17.4708 6.79926 14.6006 0.580923L12.7847 1.41908ZM27.9749 9.8057C25.9127 10.1256 22.9294 11.0591 20.0571 12.8135C17.1795 14.5711 14.3595 17.1869 12.7288 20.8945L14.5595 21.6997C15.983 18.4632 18.4676 16.1279 21.0996 14.5203C23.7371 12.9093 26.4687 12.0633 28.2815 11.7821L27.9749 9.8057ZM14.172 20.4478C9.49322 17.54 5.45559 14.2597 1.73488 10.228L0.265126 11.5844C4.11554 15.7566 8.2947 19.1499 13.1163 22.1465L14.172 20.4478ZM1.68116 11.6384C6.14562 7.48481 9.88577 4.52295 14.2176 1.85113L13.1677 0.148875C8.69557 2.90722 4.85118 5.95738 0.318845 10.1741L1.68116 11.6384Z" fill="#EAECEE"/>
</svg>
