<svg width="34" height="34" viewBox="0 0 34 34" fill="none" xmlns="http://www.w3.org/2000/svg">
<g clip-path="url(#clip0_1_1088)">
<path d="M23.6186 11.7438L23.5703 11.0524C23.3526 7.93917 18.4924 5.91896 12.2647 6.35444C6.03697 6.78992 1.50528 9.46688 1.72298 12.5801L2.07018 17.5454C2.25151 20.1385 5.65408 21.9713 10.3832 22.2605L10.4313 22.9482C10.649 26.0615 15.5092 28.0817 21.7369 27.6462C27.9646 27.2107 32.4963 24.5338 32.2786 21.4205L31.9314 16.4552C31.7517 13.8857 28.452 12.0433 23.6186 11.7438ZM29.9453 16.5941C30.06 18.2351 26.3663 20.3371 21.2508 20.6948C20.7878 20.7272 20.3274 20.7431 19.8722 20.745C22.4815 19.5821 24.0477 17.8797 23.9175 16.0177L23.759 13.751C27.5054 14.0442 29.8608 15.3863 29.9453 16.5941ZM10.2425 20.2484L10.036 17.2952C11.0328 17.3548 12.0325 17.3491 13.0285 17.2781C14.0248 17.2097 15.0155 17.0763 15.9944 16.8786L16.2009 19.8317C15.2247 20.0464 14.234 20.1886 13.2369 20.2573C12.2399 20.3281 11.239 20.3251 10.2425 20.2484ZM21.8092 14.41L21.9314 16.1566C22.0042 17.1981 20.5419 18.4242 18.1576 19.2733L17.9548 16.3723C19.5302 15.8717 20.8465 15.1984 21.8092 14.41ZM12.4036 8.34056C17.5191 7.98285 21.4694 9.55026 21.5841 11.1913C21.6989 12.8323 18.0052 14.9343 12.8897 15.292C7.77417 15.6497 3.82385 14.0823 3.70909 12.4412C3.59434 10.8002 7.28808 8.69827 12.4036 8.34056ZM4.0563 17.4065L3.93417 15.66C4.99726 16.3066 6.39448 16.7902 8.02419 17.0667L8.22705 19.9677C5.74782 19.4587 4.12913 18.448 4.0563 17.4065ZM12.4174 22.8093L12.3812 22.2917C12.7086 22.2813 13.0394 22.2669 13.3758 22.2434C13.8574 22.2097 14.3267 22.1607 14.7866 22.1011C15.3124 22.2488 15.8458 22.3681 16.3845 22.4583L16.5882 25.3705C14.1089 24.8615 12.4902 23.8508 12.4174 22.8093ZM18.6036 25.6512L18.3966 22.6906C19.3934 22.7543 20.3933 22.7511 21.3897 22.6809C22.3859 22.6126 23.3766 22.4791 24.3555 22.2814L24.562 25.2345C22.6067 25.6622 20.5994 25.8026 18.6036 25.6512ZM26.5188 24.6761L26.3159 21.7751C27.8913 21.2745 29.2076 20.6012 30.1703 19.8129L30.2925 21.5594C30.3653 22.6009 28.903 23.827 26.5188 24.6761Z" fill="#BFA054"/>
</g>
<defs>
<clipPath id="clip0_1_1088">
<rect width="31.6413" height="31.6413" fill="white" transform="translate(0 2.22209) scale(1.00677) rotate(-4)"/>
</clipPath>
</defs>
</svg>
