<svg width="530" height="23" viewBox="0 0 530 23" fill="none" xmlns="http://www.w3.org/2000/svg">
<path d="M506 11.002L1.23382e-05 11.0019" stroke="#EAECEE" stroke-width="2"/>
<path d="M516.936 0.999999L516.021 0.598266C516.139 0.329545 516.368 0.126164 516.65 0.042007C516.931 -0.0421496 517.235 0.00141317 517.481 0.161153L516.936 0.999999ZM503.216 10.7939L503.055 11.7808C502.572 11.7018 502.216 11.284 502.216 10.7939C502.216 10.3038 502.572 9.88588 503.055 9.80693L503.216 10.7939ZM516.983 21.2971L517.53 22.1341C517.281 22.2967 516.973 22.3403 516.689 22.2531C516.405 22.1659 516.174 21.9569 516.06 21.6828L516.983 21.2971ZM529 10.9062L529.7 10.1916C530.079 10.5631 530.102 11.1664 529.752 11.5656L529 10.9062ZM517.852 1.40173C514.716 8.55056 507.165 11.1626 503.377 11.7808L503.055 9.80693C506.595 9.22915 513.293 6.81708 516.021 0.598266L517.852 1.40173ZM503.377 9.80693C507.242 10.4378 514.817 13.5244 517.905 20.9114L516.06 21.6828C513.342 15.1815 506.556 12.3523 503.055 11.7808L503.377 9.80693ZM516.435 20.4602C520.878 17.5551 524.713 14.2771 528.248 10.2468L529.752 11.5656C526.091 15.7391 522.117 19.1348 517.53 22.1341L516.435 20.4602ZM528.3 11.6208C524.058 7.46801 520.505 4.50821 516.392 1.83884L517.481 0.161153C521.735 2.92194 525.391 5.97415 529.7 10.1916L528.3 11.6208Z" fill="#EAECEE"/>
</svg>
