<svg width="5" height="5" viewBox="0 0 5 5" fill="none" xmlns="http://www.w3.org/2000/svg">
<path d="M2.5 5C1.11925 5 0 3.88075 0 2.5C0 1.11925 1.11925 0 2.5 0C3.88075 0 5 1.11925 5 2.5C5 3.88075 3.88075 5 2.5 5ZM2.5 4.5C3.03043 4.5 3.53914 4.28928 3.91421 3.91421C4.28928 3.53914 4.5 3.03043 4.5 2.5C4.5 1.96957 4.28928 1.46086 3.91421 1.08579C3.53914 0.710713 3.03043 0.5 2.5 0.5C1.96957 0.5 1.46086 0.710713 1.08579 1.08579C0.710713 1.46086 0.5 1.96957 0.5 2.5C0.5 3.03043 0.710713 3.53914 1.08579 3.91421C1.46086 4.28928 1.96957 4.5 2.5 4.5ZM2.25 3.25H2.75V3.75H2.25V3.25ZM2.75 2.83875V3H2.25V2.625C2.25 2.55869 2.27634 2.49511 2.32322 2.44822C2.37011 2.40134 2.43369 2.375 2.5 2.375C2.57102 2.37499 2.64058 2.35482 2.70058 2.31683C2.76058 2.27884 2.80856 2.22459 2.83894 2.16039C2.86932 2.0962 2.88084 2.0247 2.87217 1.95421C2.8635 1.88372 2.83499 1.81714 2.78996 1.76223C2.74493 1.70731 2.68523 1.66631 2.6178 1.64399C2.55038 1.62168 2.47801 1.61897 2.4091 1.63618C2.3402 1.65338 2.2776 1.68981 2.22859 1.7412C2.17958 1.7926 2.14617 1.85686 2.13225 1.9265L1.64175 1.82825C1.67216 1.67627 1.74238 1.53509 1.84523 1.41915C1.94808 1.3032 2.07988 1.21664 2.22715 1.16833C2.37441 1.12001 2.53187 1.11167 2.68342 1.14415C2.83497 1.17664 2.97517 1.24878 3.0897 1.35321C3.20423 1.45763 3.28898 1.5906 3.33528 1.73851C3.38157 1.88643 3.38776 2.04398 3.35321 2.19508C3.31866 2.34617 3.24461 2.48537 3.13863 2.59846C3.03264 2.71156 2.89853 2.79448 2.75 2.83875Z" fill="#A8B0B9"/>
</svg>
