<svg width="63" height="63" viewBox="0 0 63 63" fill="none" xmlns="http://www.w3.org/2000/svg">
<g opacity="0.5">
<path fill-rule="evenodd" clip-rule="evenodd" d="M33.6124 44.4278C33.2751 44.198 32.9285 43.9619 32.5674 43.7187C32.5198 43.6866 32.4672 43.6506 32.4099 43.6114C31.6959 43.1231 30.251 42.1348 28.467 41.8644C26.9027 41.6273 25.4312 42.0649 24.3049 43.0465C23.3246 43.9008 22.8217 44.977 22.5478 45.7338C22.1073 46.951 21.9132 48.4529 21.8281 49.1121C21.8134 49.2258 21.8019 49.3143 21.793 49.3721C21.4584 51.5402 20.3855 52.1168 19.7971 52.2348C19.1265 52.3694 17.9771 52.1454 17.0501 50.6734C16.2081 49.3362 15.6753 47.539 15.8534 45.5036C15.8534 45.5036 16.2123 43.024 15.7112 41.7558C15.21 40.4877 9.96007 39.8075 9.53605 41.4322C9.19171 42.7516 8.89657 44.8946 8.89657 44.8946C8.58026 48.5083 9.51842 51.8182 11.1407 54.3945C13.4246 58.0216 17.3295 59.8523 21.1704 59.082C25.7388 58.1658 28.2052 54.064 28.7931 49.7347C28.7989 49.6921 28.8047 49.65 28.8105 49.6082C29.0585 49.7759 29.3135 49.9496 29.5741 50.1272C31.8565 51.6823 34.2701 53.3914 36.8505 54.4142C38.4412 55.0447 40.6507 55.5815 42.992 54.8256C44.0743 54.4761 45.05 53.8621 45.7885 52.9457C46.5108 52.0495 46.8447 51.0651 46.9885 50.2141C47.2488 48.6726 46.9418 47.1106 46.7809 46.2925L46.7777 46.2761C46.6335 45.5426 46.4688 44.7943 46.2761 44.0411C48.6845 44.2123 52.1357 44.0446 54.8568 41.7747C57.7501 39.361 58.4027 35.2282 56.7832 32.0694C55.5372 29.639 53.4451 28.4896 51.9946 27.7741C51.2907 27.4268 50.6643 27.1362 50.0878 26.8688C49.1424 26.4302 48.331 26.0538 47.532 25.5918C47.6418 25.5242 47.7494 25.4569 47.8493 25.3924C49.5128 24.3192 51.0644 22.947 52.3105 21.2461C53.3432 19.8365 54.1829 18.0505 54.2087 16.032C54.2362 13.8911 53.3395 11.9363 51.703 10.4006C48.5177 7.41161 41.8632 2.50705 36.7642 3.70958C35.7467 3.94956 33.2994 6.5499 34.9564 8.71598C35.7849 9.79902 38.0942 10.2477 38.0942 10.2477C38.3581 10.3765 38.619 10.5033 38.8769 10.6288C42.0791 12.1859 44.8206 13.519 46.9243 15.4931C47.1254 15.6818 47.1889 15.8048 47.2062 15.8434C47.221 15.8764 47.2264 15.8997 47.2258 15.9426C47.2244 16.0584 47.161 16.4584 46.6771 17.119C46.0062 18.0346 45.1183 18.8437 44.0634 19.5242C43.8498 19.662 43.677 19.7641 43.4573 19.8939C43.307 19.9826 43.1348 20.0844 42.9127 20.2193C42.4535 20.4982 41.8722 20.8688 41.2998 21.3495C40.7966 21.772 39.9099 22.5895 39.471 23.8542C38.9442 25.3719 39.2778 26.827 39.9595 27.9672C40.8678 29.4862 42.1681 30.4665 43.1581 31.1023C44.5806 32.0157 46.2381 32.7863 47.6015 33.42C48.0798 33.6424 48.522 33.848 48.9051 34.0369C50.1264 34.6394 50.4138 34.9528 50.5689 35.2554C50.6537 35.4209 50.6965 35.6588 50.6489 35.9125C50.6023 36.1604 50.4899 36.3232 50.3833 36.4121C48.7 37.8164 45.9809 36.852 44.0006 36.7242C43.4221 36.6869 42.5195 36.6646 41.6236 36.8896C40.8109 37.0937 38.788 37.8643 38.3712 40.2298C38.1183 41.6653 41.8076 47.4483 40.0179 48.1216C38.9778 48.5128 34.623 45.1161 33.6124 44.4278Z" fill="#BAA5A0"/>
</g>
</svg>
