<svg width="104" height="32" viewBox="0 0 104 32" fill="none" xmlns="http://www.w3.org/2000/svg">
<path d="M30.0753 2.41797H16.5758L13.6614 5.30598H5.57453V13.243L2.66016 16.1305V29.5806H16.1592L19.0735 26.6926H27.1604V18.7556L30.0753 15.8681V2.41797ZM25.7538 25.298H6.98112V6.69959H25.7538V25.298Z" fill="white"/>
<path d="M23.617 13.7977C23.5804 13.834 23.5416 13.8745 23.5013 13.9124C22.8421 14.5677 22.1809 15.2208 21.5176 15.8719C21.4631 15.9301 21.3887 15.9664 21.3088 15.9737C19.6939 15.9791 18.0747 15.9775 16.4565 15.9775C16.4266 15.9751 16.3967 15.9712 16.3672 15.9657C16.3672 15.1364 16.3672 14.3241 16.3715 13.5124C16.3715 12.7177 16.3672 11.9225 16.3753 11.1257C16.379 11.0359 16.4138 10.95 16.4738 10.8825C17.1332 10.2201 17.8001 9.56309 18.4655 8.906C18.4983 8.87349 18.5349 8.84251 18.5774 8.80469C20.2516 10.4649 21.9235 12.1199 23.617 13.7977Z" fill="white"/>
<path d="M16.3649 20.8418C16.3676 20.8965 16.3581 20.9512 16.337 21.0019C16.3161 21.0526 16.284 21.0981 16.2432 21.1351C15.5919 21.7751 14.9459 22.4151 14.2983 23.0583C14.2558 23.0983 14.2154 23.1405 14.1632 23.1906C12.481 21.5239 10.8069 19.8653 9.11719 18.189C9.77445 17.5378 10.4279 16.9042 11.0642 16.2509C11.2402 16.0706 11.4157 16.0055 11.6671 16.0077C13.1598 16.0189 14.652 16.013 16.1447 16.0114C16.2143 16.006 16.2834 15.9956 16.3514 15.9805C16.3573 16.0802 16.3611 16.1357 16.3611 16.1938C16.3649 17.7431 16.3649 19.2925 16.3649 20.8418Z" fill="white"/>
<path d="M37.6475 6.44331H34.6992V5.35156H41.8587V6.44331H38.9088V14.5622H37.6475V6.44331Z" fill="white"/>
<path d="M43.0234 5.35156H44.2852V14.5622H43.0234V5.35156Z" fill="white"/>
<path d="M46.1211 5.35156H47.2893L50.5191 11.2587L53.6633 5.35156H54.8319V14.5622H53.5971V7.69342L51.1537 12.2193C51.046 12.4123 50.9481 12.5483 50.855 12.6267C50.7656 12.7041 50.6506 12.7462 50.532 12.7451H50.1729L47.371 7.69342V14.5622H46.1211V5.35156Z" fill="white"/>
<path d="M56.8036 14.2955C56.6217 14.1206 56.5309 13.8795 56.5313 13.5723V5.35156H63.0511V6.44331H57.7925V9.31154H62.6528V10.3905H57.7925V13.4689H63.0511V14.5622H57.5406C57.2305 14.5622 56.9848 14.4733 56.8036 14.2955Z" fill="white"/>
<path d="M65.5045 14.2434C65.0258 13.9618 64.6402 13.5479 64.3958 13.0525C64.1345 12.5394 64.0039 11.9453 64.0039 11.2701V8.64023C64.0039 7.96465 64.1367 7.37034 64.4023 6.85732C64.6518 6.36097 65.042 5.94735 65.5245 5.66689C66.007 5.38636 66.5671 5.24609 67.204 5.24609H68.6116C69.2136 5.24609 69.7472 5.37534 70.2116 5.63383C70.669 5.88484 71.043 6.26184 71.2884 6.71914C71.5397 7.18423 71.665 7.71934 71.665 8.32452H70.4299C70.4299 7.73674 70.2639 7.26314 69.9319 6.90372C69.5999 6.54423 69.1593 6.36431 68.6109 6.36396H67.2034C66.6291 6.36396 66.1621 6.57444 65.8036 6.99543C65.4444 7.41642 65.2655 7.97335 65.2655 8.66634V11.245C65.2655 11.9383 65.4373 12.4953 65.7822 12.9159C66.1272 13.3366 66.5832 13.5469 67.151 13.5469H68.5857C69.1516 13.5469 69.605 13.3474 69.9461 12.9485C70.2872 12.5495 70.4577 12.0254 70.4577 11.3762H71.6928C71.6928 12.0251 71.5643 12.5995 71.3072 13.0994C71.0662 13.5826 70.6877 13.9852 70.2187 14.2573C69.7491 14.5293 69.2046 14.6653 68.5857 14.6653H67.151C66.5316 14.6663 65.9825 14.5257 65.5045 14.2434Z" fill="white"/>
<path d="M72.8867 5.35156H74.1483V9.37714H79.0085V5.35156H80.283V14.5622H79.0085V10.4822H74.1483V14.5622H72.8867V5.35156Z" fill="white"/>
<path d="M87.3095 12.1393H83.4337L82.5294 14.5612H81.2148L84.8129 5.35156H85.3839C85.7644 5.35156 86.0337 5.5576 86.1913 5.96969L89.5271 14.5612H88.2287L87.3095 12.1393ZM83.8039 11.0865H86.9368L85.3826 6.92917H85.3697L83.8039 11.0865Z" fill="white"/>
<path d="M90.5898 5.34766H91.8514V14.5583H90.5898V5.34766Z" fill="white"/>
<path d="M93.6816 5.35156H94.8489L99.7614 12.5483V5.35156H100.997V14.5622H99.8415L94.9148 7.39211V14.5622H93.6797L93.6816 5.35156Z" fill="white"/>
<path d="M37.4833 26.3852C37.3018 26.2099 37.2109 25.9731 37.2109 25.6748V17.4375H38.4728V25.5442H43.5182V26.6482H38.2214C37.9106 26.6482 37.6646 26.5605 37.4833 26.3852Z" fill="white"/>
<path d="M50.4524 24.2274H46.5766L45.6718 26.6482H44.3594L47.9558 17.4375H48.5269C48.9077 17.4375 49.1777 17.6437 49.337 18.0562L52.6702 26.6482H51.3686L50.4524 24.2274ZM46.9465 23.1751H50.0805L48.5269 19.0178H48.5134L46.9465 23.1751Z" fill="white"/>
<path d="M53.7983 26.3783C53.6124 26.2005 53.5195 25.9616 53.5195 25.6615V17.4375H57.6757C58.481 17.4375 59.1295 17.6283 59.6212 18.0098C60.1128 18.3913 60.3585 18.8979 60.3581 19.5298V20.2135C60.3594 20.525 60.2842 20.8321 60.139 21.1084C59.9963 21.3856 59.7836 21.6213 59.5216 21.7927V21.8055C59.9289 21.9167 60.2896 22.1543 60.5508 22.4834C60.81 22.8064 60.9485 23.2083 60.9427 23.621V24.2802C60.9427 24.9991 60.7013 25.5735 60.2187 26.0034C59.736 26.4332 59.0832 26.6482 58.2603 26.6482H54.5288C54.2281 26.6482 53.9846 26.5582 53.7983 26.3783ZM57.862 21.4775C58.2334 21.4775 58.5322 21.3614 58.7583 21.1292C58.9844 20.8971 59.0972 20.5879 59.0968 20.2018V19.5964C59.0997 19.4465 59.0647 19.2981 58.9952 19.1649C58.9257 19.0316 58.8237 18.9176 58.6985 18.8332C58.4326 18.6405 58.0873 18.5442 57.6628 18.5442H54.7813V21.4775H57.862ZM58.1274 25.5431C58.6054 25.5431 58.9838 25.4247 59.2627 25.1879C59.5415 24.9511 59.6809 24.6354 59.6809 24.2407V23.6242C59.6855 23.4743 59.6557 23.3253 59.5935 23.1885C59.5314 23.0518 59.4387 22.9308 59.3224 22.8348C59.0834 22.6332 58.7692 22.5324 58.3798 22.5324H54.7813V25.5442L58.1274 25.5431Z" fill="white"/>
<path d="M62.6141 25.993C62.1005 25.4842 61.8438 24.7999 61.8438 23.9402H63.0786C63.0786 24.4579 63.2268 24.8701 63.5233 25.177C63.8197 25.4838 64.2114 25.6374 64.6981 25.6378H66.1728C66.6592 25.6378 67.0487 25.5347 67.3407 25.3285C67.6333 25.1222 67.7793 24.8481 67.7793 24.506V23.7957C67.7812 23.6659 67.7548 23.5373 67.7005 23.419C67.6469 23.3007 67.5668 23.1957 67.4673 23.1114C67.2593 22.9272 66.9647 22.8045 66.5843 22.7434L64.1671 22.3466C63.4587 22.2324 62.9119 21.9912 62.5269 21.6229C62.1418 21.2545 61.9493 20.7941 61.9493 20.2415V19.5199C61.9493 18.8621 62.2039 18.3336 62.7132 17.9343C63.2224 17.535 63.8929 17.3356 64.7246 17.3359H66.2251C66.7477 17.3359 67.2102 17.4426 67.6127 17.6559C68.0067 17.8624 68.3316 18.1773 68.5486 18.5626C68.7702 18.9537 68.8807 19.4033 68.8807 19.9114H67.6327C67.6327 19.473 67.5041 19.1199 67.2477 18.8522C66.9912 18.5844 66.6502 18.4508 66.2251 18.4511H64.7246C64.2733 18.4511 63.9082 18.5498 63.6293 18.7471C63.4964 18.8361 63.3883 18.9569 63.3151 19.0984C63.242 19.2398 63.2062 19.3973 63.2111 19.5562V20.1482C63.2075 20.2789 63.2324 20.4086 63.2839 20.529C63.3355 20.6492 63.4125 20.7571 63.5098 20.8453C63.709 21.0298 63.9945 21.1571 64.3662 21.2271L66.7561 21.6351C67.4912 21.7578 68.0558 21.9967 68.4492 22.3519C68.6397 22.5181 68.7915 22.7236 68.8936 22.9539C68.9963 23.1841 69.0467 23.4337 69.0415 23.6853V24.5386C69.0415 25.2053 68.7825 25.7404 68.2644 26.1439C67.747 26.5475 67.0584 26.7491 66.1999 26.7487H64.6722C63.8138 26.7533 63.1276 26.5014 62.6141 25.993Z" fill="white"/>
</svg>
