<svg width="121" height="26" viewBox="0 0 121 26" fill="none" xmlns="http://www.w3.org/2000/svg">
<path fill-rule="evenodd" clip-rule="evenodd" d="M3.31042 11.5256C3.13902 4.95898 10.0825 -0.113043 18.179 1.23247C20.2428 1.6869 21.828 3.01549 22.5089 4.54748C23.1125 5.9058 23.0191 7.44194 21.8778 8.75501C22.0502 8.36019 22.1459 7.92417 22.1459 7.46581C22.1459 5.6849 20.7021 4.24119 18.9212 4.24119C17.1403 4.24119 15.6966 5.6849 15.6966 7.46581C15.6966 7.66325 15.7144 7.85652 15.7483 8.04416C15.8129 9.31669 16.5546 10.3042 17.607 10.7963C18.9521 11.4252 20.7413 11.2208 22.1516 9.92956C24.0183 8.22048 24.2772 6.0192 23.4394 4.13394C22.6139 2.27637 20.7414 0.749593 18.3841 0.234927L18.3717 0.232239L18.3593 0.230163C15.1744 -0.301657 12.0944 0.111724 9.49773 1.22678C3.98935 3.24089 1.25469 6.62915 0.354576 9.98576C-0.716171 13.9788 0.800484 18.0443 2.73717 20.5092L2.74171 20.5149L2.74638 20.5205C6.87348 25.4731 21.3242 31.1272 47.0902 17.4222C48.9333 16.7496 50.7985 16.0537 52.6826 15.3507L52.6834 15.3504L52.6853 15.3497C55.0224 14.4778 57.3886 13.5949 59.7777 12.7322C71.7533 8.40749 84.3511 4.56373 96.9768 4.91985C100.314 5.01397 105.9 5.63378 110.636 7.28717C113.004 8.11417 115.124 9.1877 116.643 10.5543C118.148 11.9075 119.048 13.5304 119.054 15.4965C119.042 15.6577 119.024 15.8182 119.001 15.9776C118.968 16.1614 118.933 16.3447 118.895 16.5274L118.901 16.5286C118.623 17.7918 118.02 18.9553 117.127 19.8278C116.001 20.9285 114.388 21.5938 112.295 21.3932C112.072 21.3719 111.844 21.342 111.609 21.3031C110.783 21.1197 110.064 20.6529 109.541 20.0462C110.036 20.3554 110.621 20.534 111.247 20.534C113.028 20.534 114.472 19.0903 114.472 17.3094C114.472 15.5285 113.028 14.0848 111.247 14.0848C110.379 14.0848 109.591 14.4278 109.012 14.9856C107.595 16.1161 107.363 17.7729 107.882 19.2048C108.409 20.6607 109.721 21.9331 111.404 22.3006C111.668 22.3582 111.938 22.3951 112.211 22.4081C114.587 22.6325 116.494 21.8703 117.839 20.5561C119.035 19.3864 119.765 17.8016 120.006 16.1409C120.424 13.784 120.442 11.172 118.981 8.76119C117.397 6.14801 114.149 3.89028 108.146 2.3895C104.979 1.59762 81.0851 -2.38229 47.8676 15.8447C47.4687 16.0636 47.0726 16.2779 46.6792 16.4875C39.4406 19.1288 32.6091 21.387 26.3154 22.3035C21.7532 22.9678 17.3509 22.7691 12.8806 21.6428C10.2834 20.9884 7.92332 19.8761 6.20034 18.2254C4.48833 16.5852 3.38535 14.3961 3.31042 11.5256Z" fill="#EAECEE"/>
</svg>
