<svg width="24" height="24" viewBox="0 0 24 24" fill="none" xmlns="http://www.w3.org/2000/svg">
<g clip-path="url(#clip0_1_1316)">
<path d="M20.5605 8.35276C21.5442 13.9316 14.0686 19.9058 13.7493 20.1544C13.6652 20.2207 13.566 20.2651 13.4606 20.2837C13.3552 20.3023 13.2468 20.2944 13.1451 20.2609C12.76 20.1365 3.692 17.0794 2.70831 11.5006C2.47879 10.1903 2.77839 8.84244 3.54139 7.75276C4.3044 6.66309 5.46848 5.92056 6.77826 5.68809C8.42401 5.3979 9.98972 5.85153 11.0988 6.88941C11.7861 5.53478 13.1022 4.573 14.748 4.28281C16.0583 4.05329 17.4061 4.3529 18.4958 5.1159C19.5855 5.8789 20.328 7.04298 20.5605 8.35276Z" fill="#FA184F"/>
</g>
<defs>
<clipPath id="clip0_1_1316">
<rect width="20" height="20" fill="white" transform="translate(0 3.59744) scale(1.03586) rotate(-10)"/>
</clipPath>
</defs>
</svg>
