<svg width="64" height="64" viewBox="0 0 64 64" fill="none" xmlns="http://www.w3.org/2000/svg">
<g clip-path="url(#clip0_1_753)">
<path d="M42.6667 45.3333V42.6667H34.6667V34.6667H42.6667V40H48V45.3333H45.3333V50.6667H40V56H34.6667V48H40V45.3333H42.6667ZM56 56H45.3333V50.6667H50.6667V45.3333H56V56ZM8 8H29.3333V29.3333H8V8ZM13.3333 13.3333V24H24V13.3333H13.3333ZM34.6667 8H56V29.3333H34.6667V8ZM40 13.3333V24H50.6667V13.3333H40ZM8 34.6667H29.3333V56H8V34.6667ZM13.3333 40V50.6667H24V40H13.3333ZM48 34.6667H56V40H48V34.6667ZM16 16H21.3333V21.3333H16V16ZM16 42.6667H21.3333V48H16V42.6667ZM42.6667 16H48V21.3333H42.6667V16Z" fill="white"/>
</g>
<defs>
<clipPath id="clip0_1_753">
<rect width="64" height="64" fill="white"/>
</clipPath>
</defs>
</svg>
