<svg width="51" height="51" viewBox="0 0 51 51" fill="none" xmlns="http://www.w3.org/2000/svg">
<path d="M19.0094 37.8885L36.7091 40.3763C38.1915 40.5846 39.6959 40.1956 40.8915 39.2947C42.087 38.3938 42.8757 37.0549 43.0841 35.5725L44.2625 27.1884L22.9483 24.1926L25.7025 27.8476C25.8218 27.9948 25.9102 28.1646 25.9625 28.3467C26.0148 28.5288 26.0299 28.7196 26.0068 28.9077C25.9837 29.0958 25.923 29.2773 25.8283 29.4415C25.7335 29.6056 25.6067 29.7489 25.4554 29.863C25.304 29.977 25.1313 30.0594 24.9474 30.1052C24.7635 30.151 24.5723 30.1594 24.3852 30.1297C24.198 30.1 24.0188 30.0329 23.8581 29.9324C23.6974 29.832 23.5586 29.7002 23.45 29.5449L20.6958 25.8899L19.0094 37.8885ZM18.5715 20.7275L18.8334 18.8644C18.8852 18.4959 18.8266 18.1203 18.6649 17.7851C18.5033 17.45 18.2458 17.1703 17.9252 16.9814C17.6046 16.7925 17.2352 16.703 16.8637 16.7241C16.4921 16.7452 16.1352 16.8759 15.838 17.0999C15.5408 17.3238 15.3167 17.6309 15.1941 17.9822C15.0714 18.3335 15.0556 18.7133 15.1488 19.0735C15.2419 19.4338 15.4398 19.7583 15.7175 20.0061C15.9951 20.2539 16.3399 20.4138 16.7084 20.4656L18.5715 20.7275ZM21.6281 19.2572L21.3662 21.1203L23.2294 21.3822C23.5979 21.434 23.9734 21.3753 24.3086 21.2137C24.6438 21.052 24.9235 20.7946 25.1123 20.474C25.3012 20.1534 25.3907 19.7839 25.3697 19.4124C25.3486 19.0409 25.2178 18.684 24.9938 18.3868C24.7699 18.0896 24.4629 17.8655 24.1116 17.7428C23.7603 17.6201 23.3805 17.6044 23.0202 17.6975C22.6599 17.7907 22.3354 17.9886 22.0876 18.2662C21.8398 18.5438 21.6799 18.8887 21.6281 19.2572ZM22.2283 14.9869L22.9375 9.94154L40.6372 12.4294C42.1196 12.6377 43.4585 13.4264 44.3594 14.622C45.2603 15.8175 45.6493 17.322 45.4409 18.8044L44.6553 24.3937L27.4996 21.9824C27.9954 21.1769 28.2368 20.2407 28.1923 19.2959C28.1479 18.3512 27.8196 17.4418 27.2504 16.6864C26.6812 15.931 25.8975 15.3648 25.0016 15.0616C24.1057 14.7584 23.1393 14.7324 22.2283 14.9869ZM20.1428 9.54873L19.4336 14.5941C18.6282 14.0983 17.6919 13.8569 16.7472 13.9014C15.8024 13.9459 14.893 14.2741 14.1376 14.8433C13.3823 15.4125 12.816 16.1962 12.5129 17.0921C12.2097 17.988 12.1836 18.9545 12.4381 19.8654L7.39278 19.1562L8.17841 13.5669C8.38677 12.0845 9.17547 10.7456 10.371 9.84468C11.5666 8.9438 13.071 8.55475 14.5534 8.76311L20.1428 9.54873ZM17.9011 25.4971L16.2147 37.4956L10.6253 36.71C9.14289 36.5017 7.80398 35.7129 6.9031 34.5174C6.00222 33.3219 5.61317 31.8174 5.82153 30.335L6.99997 21.9509L16.2038 23.2446L12.5488 25.9988C12.3935 26.1074 12.2617 26.2462 12.1613 26.4068C12.0608 26.5675 11.9937 26.7468 11.9641 26.9339C11.9344 27.1211 11.9427 27.3123 11.9885 27.4962C12.0343 27.6801 12.1167 27.8528 12.2308 28.0042C12.3448 28.1555 12.4882 28.2823 12.6523 28.377C12.8164 28.4718 12.9979 28.5325 13.186 28.5556C13.3741 28.5786 13.5649 28.5636 13.747 28.5113C13.9292 28.459 14.0989 28.3706 14.2461 28.2513L17.9011 25.4971Z" fill="#BFA054"/>
</svg>
