<svg width="80" height="71" viewBox="0 0 80 71" fill="none" xmlns="http://www.w3.org/2000/svg">
<path fill-rule="evenodd" clip-rule="evenodd" d="M17.4704 8.67256C20.4925 5.65481 27.2919 2.52519 28.7559 2.23263C29.3924 2.10555 30.74 1.83057 32.1057 1.55189C33.4866 1.27011 34.886 0.984552 35.5876 0.84429C39.8796 -0.0127756 45.0373 -0.364782 49.3499 0.496497C50.4778 0.721777 51.593 0.904774 52.6947 1.08556C56.5789 1.72292 60.2959 2.33285 63.8089 4.67136C68.2386 7.62051 69.9834 11.3603 71.9772 15.6336C72.4245 16.5924 72.8844 17.578 73.3899 18.5876C80.2488 32.2852 85.0405 55.2644 70.6026 66.0772C66.4975 69.1515 61.9279 69.2247 57.3189 69.2985C55.1207 69.3337 52.9136 69.3691 50.7436 69.7302C43.1918 70.987 33.398 71.4789 25.6578 70.4262C19.3994 69.5748 10.9317 63.4115 4.75342 56.3359C2.6076 53.8781 1.42862 49.1542 0.656579 46.0608C0.628018 45.9464 0.600014 45.8342 0.572538 45.7244C-2.68535 32.7121 8.63523 17.4946 17.4704 8.67256Z" fill="#F7EDF0"/>
<g clip-path="url(#clip0_1_560)">
<path d="M26.5 22.5H53.5C53.8978 22.5 54.2794 22.658 54.5607 22.9393C54.842 23.2206 55 23.6022 55 24V48C55 48.3978 54.842 48.7794 54.5607 49.0607C54.2794 49.342 53.8978 49.5 53.5 49.5H26.5C26.1022 49.5 25.7206 49.342 25.4393 49.0607C25.158 48.7794 25 48.3978 25 48V24C25 23.6022 25.158 23.2206 25.4393 22.9393C25.7206 22.658 26.1022 22.5 26.5 22.5ZM52 28.857L40.108 39.507L28 28.824V46.5H52V28.857ZM28.7665 25.5L40.0915 35.493L51.253 25.5H28.7665Z" fill="#9A2143"/>
</g>
<defs>
<clipPath id="clip0_1_560">
<rect width="36" height="36" fill="white" transform="translate(22 18)"/>
</clipPath>
</defs>
</svg>
