<svg width="12" height="12" viewBox="0 0 12 12" fill="none" xmlns="http://www.w3.org/2000/svg">
<path d="M4.8 10.6488V8.64001C4.8 7.87021 5.397 7.26481 6.28021 6.91921C5.71062 6.70737 5.1077 6.59927 4.5 6.60001C3.366 6.60001 2.3184 6.97021 1.4718 7.59601C1.73431 8.33841 2.17506 9.00501 2.75535 9.53729C3.33565 10.0696 4.03775 10.4512 4.8 10.6488ZM10.128 8.45161C9.89101 8.13181 9.10201 7.80001 8.10001 7.80001C6.89641 7.80001 6.00001 8.27821 6.00001 8.64001V10.8C6.83271 10.8005 7.6512 10.5842 8.37498 10.1724C9.09876 9.76068 9.70291 9.16763 10.128 8.45161ZM4.53 5.7C4.88805 5.7 5.23142 5.55777 5.4846 5.3046C5.73777 5.05142 5.88 4.70805 5.88 4.35C5.88 3.99196 5.73777 3.64858 5.4846 3.39541C5.23142 3.14223 4.88805 3 4.53 3C4.17196 3 3.82858 3.14223 3.57541 3.39541C3.32223 3.64858 3.18 3.99196 3.18 4.35C3.18 4.70805 3.32223 5.05142 3.57541 5.3046C3.82858 5.55777 4.17196 5.7 4.53 5.7ZM8.10001 6.30001C8.41827 6.30001 8.72349 6.17358 8.94854 5.94853C9.17358 5.72349 9.30001 5.41826 9.30001 5.1C9.30001 4.78174 9.17358 4.47652 8.94854 4.25148C8.72349 4.02643 8.41827 3.9 8.10001 3.9C7.78175 3.9 7.47652 4.02643 7.25148 4.25148C7.02643 4.47652 6.90001 4.78174 6.90001 5.1C6.90001 5.41826 7.02643 5.72349 7.25148 5.94853C7.47652 6.17358 7.78175 6.30001 8.10001 6.30001ZM6.00001 12C2.6862 12 0 9.31381 0 6.00001C0 2.6862 2.6862 0 6.00001 0C9.31381 0 12 2.6862 12 6.00001C12 9.31381 9.31381 12 6.00001 12Z" fill="#FCFCFC"/>
</svg>
