<svg width="12" height="9" viewBox="0 0 12 9" fill="none" xmlns="http://www.w3.org/2000/svg">
<path d="M4.12711 4.29321H5.20224C5.79355 4.29321 6.36064 4.5281 6.77876 4.94622C7.19688 5.36434 7.43177 5.93143 7.43177 6.52274H3.96312L3.96361 7.01819H7.92723V6.52274C7.92566 5.99556 7.77335 5.47983 7.48826 5.03638H8.91813C9.38646 5.03625 9.84523 5.16888 10.2412 5.41889C10.6373 5.6689 10.9543 6.02605 11.1556 6.44892C9.98384 7.99522 8.08676 9 5.94542 9C4.57748 9 3.41862 8.70768 2.47726 8.19489V3.58521C3.08003 3.67155 3.64924 3.91581 4.12711 4.29321ZM1.48635 3.05458C1.60771 3.05459 1.72483 3.09915 1.81552 3.17979C1.9062 3.26042 1.96414 3.37154 1.97834 3.49206L1.98181 3.55003V8.00909C1.98181 8.14049 1.92961 8.26651 1.83669 8.35943C1.74378 8.45235 1.61776 8.50454 1.48635 8.50454H0.495452C0.36405 8.50454 0.23803 8.45235 0.145114 8.35943C0.0521992 8.26651 0 8.14049 0 8.00909V3.55003C0 3.41863 0.0521992 3.29261 0.145114 3.19969C0.23803 3.10678 0.36405 3.05458 0.495452 3.05458H1.48635ZM6.26548 0.366753L6.44087 0.542638L6.61626 0.367248C6.73111 0.251421 6.86771 0.159419 7.01821 0.096524C7.16871 0.0336294 7.33015 0.00108077 7.49327 0.00074684C7.65638 0.000412913 7.81796 0.0323003 7.96872 0.0945781C8.11948 0.156856 8.25645 0.248298 8.37177 0.363654C8.4871 0.47901 8.5785 0.616009 8.64073 0.766785C8.70297 0.917561 8.73481 1.07914 8.73443 1.24226C8.73405 1.40537 8.70146 1.56681 8.63852 1.71729C8.57558 1.86778 8.48354 2.00435 8.36768 2.11916L6.44087 4.04548L4.51356 2.11817C4.39774 2.00332 4.30573 1.86673 4.24284 1.71622C4.17995 1.56572 4.1474 1.40428 4.14706 1.24116C4.14673 1.07805 4.17862 0.916475 4.24089 0.765717C4.30317 0.614958 4.39461 0.477986 4.50997 0.362662C4.62533 0.247339 4.76232 0.155935 4.9131 0.0937001C5.06388 0.0314649 5.22546 -0.000376702 5.38857 3.36261e-06C5.55169 0.000383427 5.71312 0.0329776 5.86361 0.0959148C6.01409 0.158852 6.15066 0.250893 6.26548 0.366753Z" fill="white"/>
</svg>
