<svg width="529" height="23" viewBox="0 0 529 23" fill="none" xmlns="http://www.w3.org/2000/svg">
<path d="M26.0009 10.9985H529" stroke="#EAECEE" stroke-width="2"/>
<path d="M13.0668 0.999998L13.9825 0.598226C13.8647 0.329535 13.6347 0.126174 13.3536 0.0420162C13.0725 -0.0421417 12.7687 0.00139528 12.5225 0.161094L13.0668 0.999998ZM26.79 10.7943L26.951 11.7812C27.4348 11.7023 27.79 11.2844 27.79 10.7943C27.79 10.3042 27.4348 9.8863 26.951 9.80736L26.79 10.7943ZM13.0207 21.298L12.4735 22.135C12.7222 22.2976 13.0302 22.3411 13.3142 22.2539C13.5982 22.1667 13.8287 21.9578 13.9433 21.6837L13.0207 21.298ZM0.999998 10.9067L0.300555 10.192C-0.0790362 10.5635 -0.101986 11.1669 0.248292 11.5662L0.999998 10.9067ZM12.1511 1.40177C15.2877 8.55096 22.8407 11.163 26.6289 11.7812L26.951 9.80736C23.4104 9.22956 16.7111 6.81734 13.9825 0.598226L12.1511 1.40177ZM26.6289 9.80736C22.7634 10.4382 15.1866 13.5248 12.0981 20.9123L13.9433 21.6837C16.6615 15.1821 23.449 12.3528 26.951 11.7812L26.6289 9.80736ZM13.5679 20.461C9.1239 17.5558 5.28779 14.2777 1.7517 10.2472L0.248292 11.5662C3.90999 15.7398 7.88551 19.1356 12.4735 22.135L13.5679 20.461ZM1.69944 11.6214C5.94301 7.4683 9.49655 4.50839 13.6111 1.8389L12.5225 0.161094C8.26711 2.92199 4.61016 5.97429 0.300555 10.192L1.69944 11.6214Z" fill="#EAECEE"/>
</svg>
