<svg width="47" height="47" viewBox="0 0 47 47" fill="none" xmlns="http://www.w3.org/2000/svg">
<g opacity="0.5">
<path d="M15.0412 0.843351C16.3526 0.906877 16.552 2.65537 16.4885 3.96674C16.4534 4.69129 16.4208 5.4852 16.3926 6.30813L16.3671 7.10199C16.3053 9.16002 15.8177 12.3484 15.8177 12.3484C15.8177 12.3484 20.5233 18.6268 21.8597 18.6268C23.1962 18.6268 21.3553 11.4342 21.6477 8.90239C21.7201 8.29993 21.7865 7.69677 21.8597 7.0944C22.0181 5.79108 23.2031 4.86293 24.5064 5.0213C25.8097 5.17968 26.7378 6.36461 26.5795 7.66793C26.5138 8.20793 26.4512 8.74833 26.3898 9.28881C26.1338 11.5081 25.7871 14.5146 25.4518 16.283C25.1843 17.6939 24.9568 19.1121 24.6881 20.5228C24.5711 21.1367 24.4418 21.7782 24.2968 22.3922C24.8974 23.3981 27.1033 28.5425 28.2 27.54C29.031 26.7803 29.1552 16.4619 28.7044 14.0717C28.7044 12.8184 28.6553 11.3866 29.8893 10.9384C31.1233 10.4902 31.8498 10.4668 32.298 11.7008C32.9151 13.4001 32.9007 15.3234 32.6317 17.0994C32.5428 17.6856 32.4182 18.4071 32.27 19.2056C31.5106 23.2991 31.49 29.9864 31.49 30.9565C31.49 31.9267 32.7362 33.3071 33.7616 34.5117C34.9333 30.8615 35.4615 25.744 34.6255 22.0067C34.3389 20.7255 35.1453 19.4545 36.4265 19.1679C37.7078 18.8814 38.9787 19.6877 39.2653 20.9689C40.0204 24.3449 39.4489 27.838 38.633 30.9565C37.969 33.495 35.634 37.65 36.339 38.4776C36.6092 38.7948 36.8504 38.9725 37.1193 39.2055L40.9438 42.5078C41.9372 43.3661 42.0468 44.8673 41.1885 45.8608C40.3302 46.8542 38.829 46.9638 37.8355 46.1055C36.0847 44.5928 35.5745 43.4784 33.7616 42.5078C32.6317 41.9028 27.9967 41.7521 25.0393 41.8456C22.9476 41.9117 20.7979 41.9461 19.0373 41.9028C18.1604 41.8812 17.3412 41.8396 16.6566 41.7664C16.0979 41.7067 15.2462 41.5955 14.5786 41.2593C13.406 40.6688 12.934 39.2395 13.5245 38.0669C14.3406 36.4464 16.8806 37.5019 18.2669 37.65C22.1782 38.0679 31.4031 40.471 30.785 39.2055C29.8528 37.2969 28.7044 36.4256 27.73 36.0834C25.0393 35.1383 13.7117 34.0721 10.6233 33.8009C9.3964 33.6932 8.30524 33.3089 7.46373 32.9922C6.23496 32.5298 5.61373 31.1588 6.07617 29.93C6.53861 28.7013 7.9096 28.08 9.13837 28.5425C9.93301 28.8415 10.5052 29.0178 11.0392 29.0647C14.9192 29.4053 24.6881 32.4268 24.6881 31.4567C24.6881 29.2314 21.9426 26.2835 21.15 26.2206C19.975 26.1273 17.6192 26.2271 15.8008 26.2206C14.4857 26.2159 13.1646 26.1881 11.8662 26.1607H11.8661L11.8655 26.1607L10.3034 26.1292C9.69564 26.1182 9.16922 26.1299 8.57521 26.1431C8.43736 26.1462 8.29575 26.1493 8.14875 26.1523C7.37699 26.1678 6.51844 26.176 5.41685 26.1273C4.10523 26.0694 3.08891 24.9591 3.14685 23.6475C3.20478 22.3359 4.31503 21.3196 5.62665 21.3775C7.98801 21.4818 18.2669 24.0573 18.2669 22.3922C18.2669 20.5228 15.9644 17.5495 15.4756 17.6934C12.3695 18.6079 9.65086 18.2775 6.53789 18.6268C4.95868 18.804 3.31059 18.2656 2.36523 16.4619C2.13217 16.0173 1.93121 15.1351 3.09407 14.5256C5.62665 13.3239 15.334 16.7029 13.5997 14.5256C11.8655 12.3484 9.48114 11.2354 8.14875 10.2779C6.53789 9.89151 6.07617 9.28881 3.77523 9.7634C2.4894 10.0286 1.3096 9.61019 0.744416 8.64532C-1.48309 4.84257 6.06251 7.66957 6.07617 7.66793C5.73879 6.24046 3.13528 2.41358 6.07617 2.0084C7.39972 1.82605 6.47411 3.96674 8.14875 6.30813C9.82339 8.64953 11.8661 9.80333 13.0186 9.28881C14.1692 8.7751 12.9424 5.54004 13.0186 3.96674C13.0821 2.65537 13.7299 0.779825 15.0412 0.843351Z" fill="#CF6F49"/>
</g>
</svg>
