<svg width="29" height="26" viewBox="0 0 29 26" fill="none" xmlns="http://www.w3.org/2000/svg">
<path fill-rule="evenodd" clip-rule="evenodd" d="M29 8.33425C28.795 10.9434 26.917 13.0207 24.5011 13.596C26.7968 14.5419 28.3268 16.8865 28.1219 19.4952L26.1074 19.337C26.2744 17.2115 24.6867 15.353 22.5611 15.186L20.5168 15.0254C21.4038 16.2802 21.8739 17.8405 21.7442 19.4921C21.4493 23.246 18.1671 26.0501 14.4132 25.7552C11.4846 25.5251 9.13406 23.4769 8.38212 20.8049C7.47135 21.3962 6.36585 21.7033 5.19967 21.6117L4.71409 21.5736C1.89819 21.3524 -0.205235 18.8903 0.015966 16.0744C0.161591 14.2206 1.27842 12.6756 2.82802 11.8994C1.41881 10.8907 0.557059 9.19031 0.702673 7.33664C0.923874 4.52074 3.38593 2.41732 6.20183 2.63852L6.68741 2.67667C7.85382 2.76829 8.89797 3.2444 9.7053 3.97088C10.8648 1.44816 13.5069 -0.208733 16.4361 0.0213737C20.19 0.316258 22.9941 3.59845 22.6992 7.35234C22.5699 8.99889 21.8658 10.4627 20.7993 11.5624L22.8346 11.7223C24.9601 11.8893 26.8186 10.3015 26.9855 8.176L29 8.33425Z" fill="#4BC1F3"/>
</svg>
