<svg width="5" height="5" viewBox="0 0 5 5" fill="none" xmlns="http://www.w3.org/2000/svg">
<path d="M3.94578 3.59774L4.99997 4.65169L4.65169 4.99997L3.59774 3.94578C3.20559 4.26014 2.71781 4.43113 2.21521 4.43041C0.992413 4.43041 0 3.438 0 2.21521C0 0.992413 0.992413 0 2.21521 0C3.438 0 4.43041 0.992413 4.43041 2.21521C4.43113 2.71781 4.26014 3.20559 3.94578 3.59774ZM3.45203 3.41511C3.7644 3.09388 3.93885 2.66328 3.93815 2.21521C3.93815 1.26316 3.16701 0.492268 2.21521 0.492268C1.26316 0.492268 0.492268 1.26316 0.492268 2.21521C0.492268 3.16701 1.26316 3.93815 2.21521 3.93815C2.66328 3.93885 3.09388 3.7644 3.41511 3.45203L3.45203 3.41511Z" fill="#A8B0B9"/>
</svg>
