<svg width="13" height="15" viewBox="0 0 13 15" fill="none" xmlns="http://www.w3.org/2000/svg">
<path d="M6.9499 4.25393C6.19552 3.50971 5.05311 3.21753 3.98576 3.60602L0.554985 4.85474L0 3.32995L9.14872 4.25309e-05L9.70371 1.52483L7.2183 2.42945C7.7452 2.73845 8.20835 3.15698 8.5738 3.66287L10.2587 3.04962L10.8137 4.5744L9.27364 5.13494C9.86002 7.33901 8.67126 9.67116 6.48319 10.4676L5.92664 10.6701L13 14.1394L10.8882 14.908L3.81481 11.4388L3.25983 9.914L5.9282 8.94278C7.27002 8.45439 8.02237 7.05814 7.73361 5.69547L1.66495 7.90431L1.10997 6.37953L6.9499 4.25393Z" fill="white"/>
</svg>
