<svg width="30" height="22" viewBox="0 0 30 22" fill="none" xmlns="http://www.w3.org/2000/svg">
<path d="M11 22H24.9334C26.1003 22 27.2195 21.5365 28.0446 20.7113C28.8698 19.8861 29.3334 18.767 29.3334 17.6V11L12.5547 11L15.0774 13.5227C15.1854 13.6234 15.2721 13.7448 15.3322 13.8798C15.3924 14.0147 15.4247 14.1604 15.4273 14.3081C15.4299 14.4558 15.4027 14.6025 15.3474 14.7394C15.2921 14.8764 15.2097 15.0008 15.1053 15.1053C15.0008 15.2097 14.8764 15.2921 14.7394 15.3474C14.6025 15.4027 14.4558 15.4299 14.3081 15.4273C14.1604 15.4247 14.0147 15.3924 13.8798 15.3322C13.7448 15.2721 13.6234 15.1854 13.5227 15.0774L11 12.5547V22ZM8.80001 8.80001V7.33334C8.80001 7.04326 8.71399 6.7597 8.55283 6.51851C8.39167 6.27731 8.16261 6.08933 7.89461 5.97832C7.62661 5.86731 7.33172 5.83826 7.04721 5.89486C6.7627 5.95145 6.50137 6.09113 6.29625 6.29625C6.09113 6.50137 5.95145 6.7627 5.89486 7.04721C5.83826 7.33172 5.86731 7.62661 5.97832 7.89461C6.08933 8.16261 6.27731 8.39167 6.51851 8.55283C6.7597 8.71399 7.04326 8.80001 7.33334 8.80001H8.80001ZM11 7.33334V8.80001H12.4667C12.7568 8.80001 13.0403 8.71399 13.2815 8.55283C13.5227 8.39167 13.7107 8.16261 13.8217 7.89461C13.9327 7.62661 13.9618 7.33172 13.9052 7.04721C13.8486 6.7627 13.7089 6.50137 13.5038 6.29625C13.2987 6.09113 13.0373 5.95145 12.7528 5.89486C12.4683 5.83826 12.1734 5.86731 11.9054 5.97832C11.6374 6.08933 11.4084 6.27731 11.2472 6.51851C11.086 6.7597 11 7.04326 11 7.33334ZM11 3.97174V0L24.9334 0C26.1003 0 27.2195 0.463571 28.0446 1.28873C28.8698 2.11389 29.3334 3.23305 29.3334 4.40001V8.80001H15.8283C16.1236 8.12443 16.2083 7.37551 16.0715 6.65102C15.9347 5.92653 15.5826 5.26011 15.0613 4.73876C14.5399 4.21741 13.8735 3.86534 13.149 3.72851C12.4245 3.59168 11.6756 3.67645 11 3.97174ZM8.80001 0V3.97174C8.12443 3.67645 7.37551 3.59168 6.65102 3.72851C5.92652 3.86534 5.26011 4.21741 4.73876 4.73876C4.21741 5.26011 3.86534 5.92653 3.72851 6.65102C3.59168 7.37551 3.67645 8.12443 3.97174 8.80001H0L0 4.40001C0 3.23305 0.463571 2.11389 1.28873 1.28873C2.11389 0.463571 3.23305 0 4.40001 0L8.80001 0ZM8.80001 12.5547V22H4.40001C3.23305 22 2.11389 21.5365 1.28873 20.7113C0.463571 19.8861 0 18.767 0 17.6L0 11H7.24534L4.72267 13.5227C4.6146 13.6234 4.52791 13.7448 4.46779 13.8798C4.40767 14.0147 4.37534 14.1604 4.37274 14.3081C4.37013 14.4558 4.3973 14.6025 4.45263 14.7394C4.50795 14.8764 4.5903 15.0008 4.69475 15.1053C4.7992 15.2097 4.92363 15.2921 5.0606 15.3474C5.19757 15.4027 5.34428 15.4299 5.49197 15.4273C5.63967 15.4247 5.78533 15.3924 5.92026 15.3322C6.0552 15.2721 6.17664 15.1854 6.27734 15.0774L8.80001 12.5547Z" fill="#FCFCFC"/>
</svg>
