<svg width="470" height="299" viewBox="0 0 470 299" fill="none" xmlns="http://www.w3.org/2000/svg">
<mask id="mask0_1_1118" style="mask-type:alpha" maskUnits="userSpaceOnUse" x="0" y="0" width="470" height="299">
<rect width="470" height="299" rx="12" fill="#D9D9D9"/>
<rect x="0.5" y="0.5" width="469" height="298" rx="11.5" stroke="white" stroke-opacity="0.16"/>
</mask>
<g mask="url(#mask0_1_1118)">
<path d="M-273.441 80.0938L-255.88 84.6624C-239.894 88.8213 -222.884 85.008 -210.203 74.4228L-207.438 72.1144C-196.672 63.1275 -182.27 59.8029 -168.654 63.1609V63.1609C-154.566 66.6355 -139.669 62.95 -128.826 53.307L-125.515 50.3625C-115.556 41.5055 -101.828 38.2123 -88.9346 41.5867L-86.9551 42.1047C-74.4006 45.3903 -61.047 41.7271 -51.9262 32.4956L-50.1694 30.7175C-41.5658 22.0096 -28.7768 18.9178 -17.1456 22.7339V22.7339C-5.42955 26.5778 7.4528 23.4111 16.0515 14.5736L18.4285 12.1305C26.6129 3.71873 39.0104 0.968969 49.9838 5.13154V5.13154C60.4227 9.09135 72.2031 6.80821 80.4069 -0.764688L85.9552 -5.88635C95.8406 -15.0115 109.524 -18.8011 122.695 -16.0613L126.465 -15.2772C141.004 -12.2529 156.132 -15.9657 167.618 -25.3778L170.726 -27.9239C183.367 -38.282 199.942 -42.5178 216.003 -39.4945V-39.4945C231.57 -36.5641 247.647 -40.4503 260.156 -50.168L264.041 -53.1854C277.528 -63.6626 294.691 -68.2158 311.598 -65.8021L315.586 -65.2329C331.375 -62.9788 347.357 -67.7794 359.291 -78.3609V-78.3609C370.705 -88.4816 385.849 -93.335 401.02 -91.7342L411.141 -90.6662C428.403 -88.8447 445.695 -93.8197 459.35 -104.536L460.671 -105.573C474.364 -116.319 491.714 -121.291 509.02 -119.428L512.523 -119.051C531.6 -116.997 550.638 -123.253 564.779 -136.223L577.539 -147.926" stroke="white" stroke-opacity="0.16"/>
<path d="M-237.633 213.738L-220.072 218.307C-204.086 222.466 -187.075 218.653 -174.395 208.067L-171.629 205.759C-160.863 196.772 -146.462 193.447 -132.846 196.805V196.805C-118.757 200.28 -103.861 196.595 -93.0173 186.952L-89.7063 184.007C-79.7469 175.15 -66.0198 171.857 -53.126 175.231L-51.1465 175.749C-38.592 179.035 -25.2384 175.372 -16.1176 166.14L-14.3608 164.362C-5.75725 155.654 7.03181 152.562 18.663 156.378V156.378C30.379 160.222 43.2614 157.056 51.8601 148.218L54.2371 145.775C62.4215 137.363 74.819 134.614 85.7924 138.776V138.776C96.2313 142.736 108.012 140.453 116.215 132.88L121.764 127.758C131.649 118.633 145.333 114.843 158.504 117.583L162.274 118.367C176.813 121.392 191.94 117.679 203.427 108.267L206.534 105.721C219.175 95.3626 235.751 91.1267 251.812 94.1501V94.1501C267.379 97.0805 283.455 93.1942 295.965 83.4765L299.849 80.4591C313.337 69.9819 330.5 65.4287 347.407 67.8424L351.394 68.4117C367.184 70.6657 383.166 65.8651 395.099 55.2836V55.2836C406.513 45.1629 421.658 40.3095 436.828 41.9103L446.949 42.9783C464.211 44.7998 481.504 39.8249 495.158 29.1087L496.48 28.0714C510.173 17.3252 527.522 12.3535 544.829 14.2166L548.331 14.5936C567.408 16.6473 586.447 10.3913 600.587 -2.57799L613.348 -14.2813" stroke="white" stroke-opacity="0.16"/>
<path d="M-255.537 146.918L-237.976 151.487C-221.99 155.645 -204.98 151.832 -192.299 141.247L-189.533 138.939C-178.767 129.952 -164.366 126.627 -150.75 129.985V129.985C-136.661 133.46 -121.765 129.774 -110.922 120.131L-107.611 117.187C-97.6512 108.33 -83.9241 105.036 -71.0303 108.411L-69.0508 108.929C-56.4963 112.214 -43.1427 108.551 -34.0219 99.3199L-32.2651 97.5417C-23.6615 88.8338 -10.8725 85.742 0.758739 89.5581V89.5581C12.4747 93.402 25.3571 90.2354 33.9558 81.3978L36.3328 78.9547C44.5172 70.543 56.9147 67.7932 67.8881 71.9558V71.9558C78.327 75.9156 90.1074 73.6324 98.3112 66.0595L103.86 60.9379C113.745 51.8127 127.428 48.0232 140.6 50.7629L144.37 51.5471C158.909 54.5713 174.036 50.8586 185.523 41.4464L188.63 38.9003C201.271 28.5423 217.847 24.3064 233.907 27.3298V27.3298C249.475 30.2602 265.551 26.3739 278.061 16.6562L281.945 13.6388C295.432 3.16161 312.595 -1.39161 329.503 1.02207L333.49 1.59135C349.279 3.84542 365.261 -0.955217 377.195 -11.5367V-11.5367C388.609 -21.6574 403.754 -26.5108 418.924 -24.91L429.045 -23.842C446.307 -22.0205 463.599 -26.9955 477.254 -37.7116L478.576 -38.749C492.269 -49.4951 509.618 -54.4668 526.924 -52.6037L530.427 -52.2267C549.504 -50.173 568.542 -56.4291 582.683 -69.3983L595.444 -81.1016" stroke="white" stroke-opacity="0.16"/>
<path d="M-264.49 113.508L-246.929 118.076C-230.943 122.235 -213.933 118.422 -201.252 107.837L-198.486 105.528C-187.72 96.5416 -173.319 93.2169 -159.703 96.575V96.575C-145.614 100.05 -130.718 96.3641 -119.875 86.721L-116.564 83.7765C-106.604 74.9196 -92.8772 71.6263 -79.9834 75.0007L-78.0039 75.5188C-65.4495 78.8043 -52.0959 75.1412 -42.975 65.9097L-41.2182 64.1315C-32.6147 55.4236 -19.8256 52.3318 -8.19439 56.1479V56.1479C3.52162 59.9919 16.404 56.8252 25.0027 47.9876L27.3797 45.5446C35.5641 37.1328 47.9615 34.383 58.9349 38.5456V38.5456C69.3738 42.5054 81.1543 40.2223 89.3581 32.6494L94.9064 27.5277C104.792 18.4026 118.475 14.613 131.647 17.3527L135.416 18.1369C149.956 21.1612 165.083 17.4484 176.569 8.03625L179.677 5.49014C192.318 -4.86789 208.894 -9.10372 224.954 -6.0804V-6.0804C240.521 -3.14999 256.598 -7.03628 269.107 -16.7539L272.992 -19.7713C286.479 -30.2485 303.642 -34.8018 320.549 -32.3881L324.537 -31.8188C340.326 -29.5647 356.308 -34.3654 368.242 -44.9469V-44.9469C379.656 -55.0675 394.8 -59.921 409.971 -58.3201L420.092 -57.2521C437.354 -55.4306 454.646 -60.4056 468.301 -71.1218L469.623 -72.1591C483.316 -82.9053 500.665 -87.8769 517.971 -86.0139L521.474 -85.6368C540.551 -83.5831 559.589 -89.8392 573.73 -102.808L586.49 -114.512" stroke="white" stroke-opacity="0.16"/>
<path d="M-228.678 247.156L-211.117 251.725C-195.131 255.884 -178.12 252.071 -165.439 241.485L-162.674 239.177C-151.908 230.19 -137.507 226.865 -123.891 230.223V230.223C-109.802 233.698 -94.9056 230.013 -84.0623 220.369L-80.7513 217.425C-70.7919 208.568 -57.0647 205.275 -44.1709 208.649L-42.1914 209.167C-29.637 212.453 -16.2834 208.79 -7.16253 199.558L-5.40568 197.78C3.19783 189.072 15.9869 185.98 27.6181 189.796V189.796C39.3341 193.64 52.2165 190.474 60.8152 181.636L63.1922 179.193C71.3766 170.781 83.774 168.031 94.7474 172.194V172.194C105.186 176.154 116.967 173.871 125.171 166.298L130.719 161.176C140.604 152.051 154.288 148.261 167.459 151.001L171.229 151.785C185.768 154.81 200.895 151.097 212.382 141.685L215.489 139.139C228.13 128.781 244.706 124.545 260.767 127.568V127.568C276.334 130.498 292.41 126.612 304.92 116.895L308.804 113.877C322.292 103.4 339.455 98.8467 356.362 101.26L360.35 101.83C376.139 104.084 392.121 99.2831 404.055 88.7016V88.7016C415.469 78.5809 430.613 73.7275 445.783 75.3283L455.904 76.3963C473.166 78.2178 490.459 73.2428 504.113 62.5266L505.435 61.4893C519.128 50.7431 536.478 45.7715 553.784 47.6346L557.286 48.0116C576.363 50.0653 595.402 43.8092 609.543 30.84L622.303 19.1367" stroke="white" stroke-opacity="0.16"/>
<path d="M-246.584 180.328L-229.023 184.897C-213.037 189.056 -196.027 185.242 -183.346 174.657L-180.58 172.349C-169.814 163.362 -155.413 160.037 -141.797 163.395V163.395C-127.708 166.87 -112.812 163.184 -101.969 153.541L-98.6575 150.597C-88.6981 141.74 -74.971 138.447 -62.0772 141.821L-60.0977 142.339C-47.5432 145.625 -34.1896 141.962 -25.0688 132.73L-23.3119 130.952C-14.7084 122.244 -1.91936 119.152 9.71186 122.968V122.968C21.4279 126.812 34.3102 123.646 42.9089 114.808L45.286 112.365C53.4704 103.953 65.8678 101.203 76.8412 105.366V105.366C87.2801 109.326 99.0605 107.043 107.264 99.4697L112.813 94.348C122.698 85.2229 136.382 81.4333 149.553 84.173L153.323 84.9572C167.862 87.9815 182.989 84.2687 194.476 74.8566L197.583 72.3105C210.224 61.9524 226.8 57.7166 242.861 60.7399V60.7399C258.428 63.6703 274.504 59.784 287.014 50.0664L290.898 47.049C304.385 36.5718 321.548 32.0186 338.456 34.4322L342.443 35.0015C358.233 37.2556 374.215 32.4549 386.148 21.8735V21.8735C397.562 11.7528 412.707 6.89933 427.877 8.50018L437.998 9.56817C455.26 11.3897 472.552 6.41469 486.207 -4.30148L487.529 -5.3388C501.222 -16.085 518.571 -21.0566 535.878 -19.1936L539.38 -18.8165C558.457 -16.7628 577.496 -23.0189 591.636 -35.9881L604.397 -47.6915" stroke="white" stroke-opacity="0.16"/>
<path d="M-268.967 96.8008L-251.406 101.369C-235.42 105.528 -218.409 101.715 -205.729 91.1299L-202.963 88.8214C-192.197 79.8346 -177.796 76.5099 -164.18 79.8679V79.8679C-150.091 83.3425 -135.195 79.6571 -124.351 70.014L-121.04 67.0695C-111.081 58.2125 -97.3538 54.9193 -84.46 58.2937L-82.4805 58.8117C-69.926 62.0973 -56.5724 58.4342 -47.4516 49.2027L-45.6947 47.4245C-37.0912 38.7166 -24.3022 35.6248 -12.6709 39.4409V39.4409C-0.954939 43.2848 11.9274 40.1182 20.5261 31.2806L22.9031 28.8375C31.0875 20.4258 43.485 17.676 54.4584 21.8386V21.8386C64.8973 25.7984 76.6777 23.5152 84.8815 15.9423L90.4299 10.8207C100.315 1.69555 113.999 -2.09403 127.17 0.645702L130.94 1.42988C145.479 4.45416 160.606 0.741365 172.093 -8.67078L175.2 -11.2169C187.841 -21.5749 204.417 -25.8108 220.478 -22.7874V-22.7874C236.045 -19.857 252.121 -23.7433 264.631 -33.461L268.515 -36.4784C282.003 -46.9556 299.166 -51.5088 316.073 -49.0951L320.06 -48.5258C335.85 -46.2718 351.832 -51.0724 363.765 -61.6539V-61.6539C375.18 -71.7746 390.324 -76.628 405.494 -75.0272L415.615 -73.9592C432.877 -72.1377 450.17 -77.1126 463.824 -87.8288L465.146 -88.8661C478.839 -99.6123 496.188 -104.584 513.495 -102.721L516.997 -102.344C536.074 -100.29 555.113 -106.546 569.253 -119.515L582.014 -131.219" stroke="white" stroke-opacity="0.16"/>
<path d="M-233.156 230.445L-215.595 235.014C-199.609 239.173 -182.599 235.36 -169.918 224.774L-167.152 222.466C-156.386 213.479 -141.985 210.154 -128.369 213.512V213.512C-114.28 216.987 -99.3841 213.302 -88.5408 203.659L-85.2298 200.714C-75.2704 191.857 -61.5432 188.564 -48.6495 191.938L-46.67 192.456C-34.1155 195.742 -20.7619 192.079 -11.641 182.847L-9.8842 181.069C-1.28068 172.361 11.5084 169.269 23.1396 173.085V173.085C34.8556 176.929 47.738 173.763 56.3367 164.925L58.7137 162.482C66.8981 154.07 79.2955 151.321 90.2689 155.483V155.483C100.708 159.443 112.488 157.16 120.692 149.587L126.24 144.465C136.126 135.34 149.809 131.55 162.981 134.29L166.75 135.074C181.29 138.099 196.417 134.386 207.903 124.974L211.011 122.428C223.652 112.07 240.227 107.834 256.288 110.857V110.857C271.855 113.788 287.932 109.901 300.441 100.184L304.326 97.1662C317.813 86.689 334.976 82.1357 351.883 84.5494L355.871 85.1187C371.66 87.3728 387.642 82.5721 399.576 71.9906V71.9906C410.99 61.87 426.134 57.0165 441.305 58.6174L451.426 59.6854C468.688 61.5069 485.98 56.5319 499.635 45.8157L500.957 44.7784C514.65 34.0322 531.999 29.0606 549.305 30.9236L552.808 31.3007C571.885 33.3544 590.923 27.0983 605.064 14.129L617.824 2.42573" stroke="white" stroke-opacity="0.16"/>
<path d="M-251.061 163.625L-233.5 168.194C-217.514 172.353 -200.503 168.539 -187.822 157.954L-185.057 155.646C-174.291 146.659 -159.889 143.334 -146.273 146.692V146.692C-132.185 150.167 -117.288 146.481 -106.445 136.838L-103.134 133.894C-93.1747 125.037 -79.4475 121.744 -66.5538 125.118L-64.5742 125.636C-52.0198 128.922 -38.6662 125.258 -29.5453 116.027L-27.7885 114.249C-19.185 105.541 -6.39593 102.449 5.2353 106.265V106.265C16.9513 110.109 29.8337 106.942 38.4324 98.1048L40.8094 95.6618C48.9938 87.25 61.3912 84.5002 72.3646 88.6628V88.6628C82.8035 92.6226 94.584 90.3395 102.788 82.7666L108.336 77.6449C118.221 68.5198 131.905 64.7302 145.076 67.4699L148.846 68.2541C163.385 71.2784 178.512 67.5656 189.999 58.1534L193.107 55.6073C205.748 45.2493 222.323 41.0135 238.384 44.0368V44.0368C253.951 46.9672 270.028 43.0809 282.537 33.3633L286.421 30.3459C299.909 19.8686 317.072 15.3154 333.979 17.7291L337.967 18.2984C353.756 20.5524 369.738 15.7518 381.672 5.17033V5.17033C393.086 -4.95034 408.23 -9.80379 423.401 -8.20295L433.522 -7.13496C450.783 -5.31343 468.076 -10.2884 481.731 -21.0046L483.052 -22.0419C496.745 -32.7881 514.095 -37.7597 531.401 -35.8967L534.903 -35.5196C553.981 -33.4659 573.019 -39.722 587.16 -52.6913L599.92 -64.3946" stroke="white" stroke-opacity="0.16"/>
<path d="M-260.014 130.211L-242.453 134.78C-226.467 138.938 -209.456 135.125 -196.775 124.54L-194.01 122.232C-183.244 113.245 -168.843 109.92 -155.227 113.278V113.278C-141.138 116.753 -126.242 113.067 -115.398 103.424L-112.087 100.48C-102.128 91.6227 -88.4007 88.3295 -75.5069 91.7038L-73.5274 92.2219C-60.9729 95.5075 -47.6193 91.8443 -38.4985 82.6128L-36.7416 80.8347C-28.1381 72.1267 -15.3491 69.0349 -3.71782 72.8511V72.8511C7.99819 76.695 20.8805 73.5283 29.4792 64.6907L31.8563 62.2477C40.0407 53.8359 52.4381 51.0862 63.4115 55.2487V55.2487C73.8504 59.2085 85.6309 56.9254 93.8346 49.3525L99.383 44.2308C109.268 35.1057 122.952 31.3161 136.123 34.0559L139.893 34.84C154.432 37.8643 169.559 34.1515 181.046 24.7394L184.153 22.1933C196.795 11.8352 213.37 7.5994 229.431 10.6227V10.6227C244.998 13.5531 261.074 9.66684 273.584 -0.0508019L277.468 -3.06819C290.956 -13.5454 308.119 -18.0986 325.026 -15.685L329.014 -15.1157C344.803 -12.8616 360.785 -17.6622 372.719 -28.2437V-28.2437C384.133 -38.3644 399.277 -43.2179 414.448 -41.617L424.568 -40.549C441.83 -38.7275 459.123 -43.7025 472.777 -54.4187L474.099 -55.456C487.792 -66.2022 505.142 -71.1738 522.448 -69.3107L525.95 -68.9337C545.028 -66.88 564.066 -73.1361 578.207 -86.1053L590.967 -97.8086" stroke="white" stroke-opacity="0.16"/>
<path d="M-242.107 197.035L-224.546 201.604C-208.56 205.763 -191.55 201.949 -178.869 191.364L-176.104 189.056C-165.338 180.069 -150.936 176.744 -137.32 180.102V180.102C-123.232 183.577 -108.335 179.891 -97.4919 170.248L-94.181 167.304C-84.2215 158.447 -70.4944 155.154 -57.6006 158.528L-55.6211 159.046C-43.0666 162.332 -29.713 158.669 -20.5922 149.437L-18.8354 147.659C-10.2319 138.951 2.5572 135.859 14.1884 139.675V139.675C25.9044 143.519 38.7868 140.353 47.3855 131.515L49.7625 129.072C57.9469 120.66 70.3444 117.91 81.3177 122.073V122.073C91.7566 126.033 103.537 123.75 111.741 116.177L117.289 111.055C127.175 101.93 140.858 98.1403 154.029 100.88L157.799 101.664C172.338 104.689 187.465 100.976 198.952 91.5636L202.06 89.0175C214.701 78.6595 231.276 74.4236 247.337 77.4469V77.4469C262.904 80.3774 278.981 76.4911 291.49 66.7734L295.375 63.756C308.862 53.2788 326.025 48.7256 342.932 51.1393L346.92 51.7085C362.709 53.9626 378.691 49.162 390.625 38.5805V38.5805C402.039 28.4598 417.183 23.6064 432.354 25.2072L442.475 26.2752C459.736 28.0967 477.029 23.1217 490.684 12.4056L492.005 11.3682C505.698 0.622052 523.048 -4.34958 540.354 -2.48653L543.857 -2.10949C562.934 -0.0557934 581.972 -6.31187 596.113 -19.2811L608.873 -30.9844" stroke="white" stroke-opacity="0.16"/>
<path d="M-188.221 398.148L-170.66 402.717C-154.674 406.876 -137.663 403.063 -124.982 392.478L-122.217 390.169C-111.451 381.182 -97.0496 377.858 -83.4336 381.216V381.216C-69.3448 384.69 -54.4486 381.005 -43.6052 371.362L-40.2942 368.417C-30.3348 359.56 -16.6077 356.267 -3.71391 359.641L-1.7344 360.159C10.8201 363.445 24.1737 359.782 33.2945 350.55L35.0513 348.772C43.6549 340.064 56.4439 336.972 68.0751 340.789V340.789C79.7912 344.632 92.6735 341.466 101.272 332.628L103.649 330.185C111.834 321.773 124.231 319.024 135.204 323.186V323.186C145.643 327.146 157.424 324.863 165.628 317.29L171.176 312.168C181.061 303.043 194.745 299.254 207.916 301.993L211.686 302.778C226.225 305.802 241.352 302.089 252.839 292.677L255.946 290.131C268.588 279.773 285.163 275.537 301.224 278.56V278.56C316.791 281.491 332.867 277.604 345.377 267.887L349.261 264.869C362.749 254.392 379.912 249.839 396.819 252.253L400.807 252.822C416.596 255.076 432.578 250.275 444.512 239.694V239.694C455.926 229.573 471.07 224.72 486.24 226.32L496.361 227.388C513.623 229.21 530.916 224.235 544.57 213.519L545.892 212.482C559.585 201.735 576.935 196.764 594.241 198.627L597.743 199.004C616.821 201.057 635.859 194.801 650 181.832L662.76 170.129" stroke="white" stroke-opacity="0.16"/>
<path d="M-224.031 264.5L-206.47 269.069C-190.484 273.228 -173.474 269.414 -160.793 258.829L-158.027 256.521C-147.261 247.534 -132.86 244.209 -119.244 247.567V247.567C-105.155 251.042 -90.2591 247.356 -79.4158 237.713L-76.1048 234.769C-66.1454 225.912 -52.4182 222.619 -39.5245 225.993L-37.545 226.511C-24.9905 229.797 -11.6369 226.133 -2.51605 216.902L-0.759197 215.124C7.84432 206.416 20.6334 203.324 32.2646 207.14V207.14C43.9806 210.984 56.863 207.817 65.4617 198.98L67.8387 196.537C76.0231 188.125 88.4205 185.375 99.3939 189.538V189.538C109.833 193.498 121.613 191.214 129.817 183.642L135.365 178.52C145.251 169.395 158.934 165.605 172.106 168.345L175.875 169.129C190.415 172.153 205.542 168.441 217.028 159.028L220.136 156.482C232.777 146.124 249.352 141.888 265.413 144.912V144.912C280.98 147.842 297.057 143.956 309.566 134.238L313.451 131.221C326.938 120.744 344.101 116.19 361.008 118.604L364.996 119.173C380.785 121.427 396.767 116.627 408.701 106.045V106.045C420.115 95.9247 435.259 91.0712 450.43 92.6721L460.551 93.74C477.813 95.5616 495.105 90.5866 508.76 79.8704L510.082 78.8331C523.775 68.0869 541.124 63.1153 558.43 64.9783L561.933 65.3554C581.01 67.4091 600.048 61.153 614.189 48.1837L626.949 36.4804" stroke="white" stroke-opacity="0.16"/>
<path d="M-206.125 331.324L-188.564 335.893C-172.578 340.052 -155.568 336.238 -142.887 325.653L-140.121 323.345C-129.355 314.358 -114.954 311.033 -101.338 314.391V314.391C-87.2491 317.866 -72.3529 314.18 -61.5095 304.537L-58.1985 301.593C-48.2391 292.736 -34.512 289.443 -21.6182 292.817L-19.6387 293.335C-7.08422 296.621 6.26938 292.958 15.3902 283.726L17.1471 281.948C25.7506 273.24 38.5396 270.148 50.1708 273.964V273.964C61.8869 277.808 74.7692 274.642 83.3679 265.804L85.7449 263.361C93.9293 254.949 106.327 252.199 117.3 256.362V256.362C127.739 260.322 139.52 258.039 147.723 250.466L153.272 245.344C163.157 236.219 176.841 232.429 190.012 235.169L193.782 235.953C208.321 238.978 223.448 235.265 234.935 225.853L238.042 223.307C250.683 212.949 267.259 208.713 283.319 211.736V211.736C298.887 214.666 314.963 210.78 327.473 201.062L331.357 198.045C344.844 187.568 362.007 183.015 378.915 185.428L382.902 185.998C398.692 188.252 414.674 183.451 426.607 172.87V172.87C438.021 162.749 453.166 157.895 468.336 159.496L478.457 160.564C495.719 162.386 513.011 157.411 526.666 146.695L527.988 145.657C541.681 134.911 559.03 129.939 576.337 131.803L579.839 132.18C598.916 134.233 617.955 127.977 632.095 115.008L644.856 103.305" stroke="white" stroke-opacity="0.16"/>
<path d="M-215.078 297.914L-197.517 302.483C-181.531 306.642 -164.521 302.828 -151.84 292.243L-149.074 289.935C-138.308 280.948 -123.907 277.623 -110.291 280.981V280.981C-96.2022 284.456 -81.306 280.77 -70.4626 271.127L-67.1517 268.183C-57.1922 259.326 -43.4651 256.033 -30.5713 259.407L-28.5918 259.925C-16.0373 263.211 -2.68374 259.547 6.43708 250.316L8.19393 248.538C16.7974 239.83 29.5865 236.738 41.2177 240.554V240.554C52.9337 244.398 65.8161 241.231 74.4148 232.394L76.7918 229.951C84.9762 221.539 97.3736 218.789 108.347 222.952V222.952C118.786 226.912 130.566 224.629 138.77 217.056L144.319 211.934C154.204 202.809 167.887 199.019 181.059 201.759L184.829 202.543C199.368 205.567 214.495 201.855 225.982 192.443L229.089 189.896C241.73 179.538 258.306 175.303 274.366 178.326V178.326C289.934 181.256 306.01 177.37 318.52 167.652L322.404 164.635C335.891 154.158 353.054 149.604 369.962 152.018L373.949 152.587C389.738 154.842 405.72 150.041 417.654 139.459V139.459C429.068 129.339 444.213 124.485 459.383 126.086L469.504 127.154C486.766 128.976 504.058 124.001 517.713 113.284L519.035 112.247C532.728 101.501 550.077 96.5293 567.383 98.3924L570.886 98.7694C589.963 100.823 609.001 94.567 623.142 81.5978L635.903 69.8945" stroke="white" stroke-opacity="0.16"/>
<path d="M-197.174 364.734L-179.613 369.303C-163.627 373.462 -146.616 369.649 -133.936 359.063L-131.17 356.755C-120.404 347.768 -106.003 344.443 -92.3867 347.802V347.802C-78.2979 351.276 -63.4017 347.591 -52.5584 337.948L-49.2474 335.003C-39.2879 326.146 -25.5608 322.853 -12.667 326.227L-10.6875 326.745C1.86695 330.031 15.2206 326.368 24.3414 317.136L26.0982 315.358C34.7017 306.65 47.4908 303.558 59.122 307.375V307.375C70.838 311.218 83.7204 308.052 92.3191 299.214L94.6961 296.771C102.881 288.359 115.278 285.61 126.251 289.772V289.772C136.69 293.732 148.471 291.449 156.674 283.876L162.223 278.754C172.108 269.629 185.792 265.84 198.963 268.579L202.733 269.363C217.272 272.388 232.399 268.675 243.886 259.263L246.993 256.717C259.634 246.359 276.21 242.123 292.271 245.146V245.146C307.838 248.077 323.914 244.19 336.424 234.473L340.308 231.455C353.796 220.978 370.958 216.425 387.866 218.838L391.853 219.408C407.643 221.662 423.625 216.861 435.558 206.28V206.28C446.972 196.159 462.117 191.306 477.287 192.906L487.408 193.974C504.67 195.796 521.963 190.821 535.617 180.105L536.939 179.067C550.632 168.321 567.981 163.35 585.288 165.213L588.79 165.59C607.867 167.643 626.906 161.387 641.046 148.418L653.807 136.715" stroke="white" stroke-opacity="0.16"/>
<path d="M-219.555 281.203L-201.994 285.772C-186.008 289.931 -168.997 286.117 -156.316 275.532L-153.551 273.224C-142.785 264.237 -128.384 260.912 -114.768 264.27V264.27C-100.679 267.745 -85.7825 264.059 -74.9392 254.416L-71.6282 251.472C-61.6688 242.615 -47.9417 239.322 -35.0479 242.696L-33.0684 243.214C-20.5139 246.5 -7.16031 242.837 1.96052 233.605L3.71737 231.827C12.3209 223.119 25.1099 220.027 36.7412 223.843V223.843C48.4572 227.687 61.3395 224.521 69.9382 215.683L72.3152 213.24C80.4997 204.828 92.8971 202.078 103.87 206.241V206.241C114.309 210.201 126.09 207.918 134.294 200.345L139.842 195.223C149.727 186.098 163.411 182.308 176.582 185.048L180.352 185.832C194.891 188.857 210.018 185.144 221.505 175.732L224.612 173.185C237.254 162.827 253.829 158.592 269.89 161.615V161.615C285.457 164.545 301.533 160.659 314.043 150.941L317.927 147.924C331.415 137.447 348.578 132.894 365.485 135.307L369.473 135.877C385.262 138.131 401.244 133.33 413.178 122.748V122.748C424.592 112.628 439.736 107.774 454.906 109.375L465.027 110.443C482.289 112.265 499.582 107.29 513.236 96.5735L514.558 95.5362C528.251 84.79 545.601 79.8184 562.907 81.6814L566.409 82.0585C585.487 84.1122 604.525 77.8561 618.666 64.8869L631.426 53.1835" stroke="white" stroke-opacity="0.16"/>
<path d="M-201.648 348.031L-184.087 352.6C-168.101 356.759 -151.091 352.946 -138.41 342.36L-135.645 340.052C-124.879 331.065 -110.477 327.74 -96.8613 331.098V331.098C-82.7725 334.573 -67.8763 330.888 -57.033 321.244L-53.722 318.3C-43.7626 309.443 -30.0354 306.15 -17.1416 309.524L-15.1621 310.042C-2.60766 313.328 10.7459 309.665 19.8668 300.433L21.6236 298.655C30.2271 289.947 43.0162 286.855 54.6474 290.671V290.671C66.3634 294.515 79.2458 291.349 87.8445 282.511L90.2215 280.068C98.4059 271.656 110.803 268.906 121.777 273.069V273.069C132.216 277.029 143.996 274.746 152.2 267.173L157.748 262.051C167.634 252.926 181.317 249.136 194.488 251.876L198.258 252.66C212.797 255.685 227.924 251.972 239.411 242.56L242.519 240.014C255.16 229.656 271.735 225.42 287.796 228.443V228.443C303.363 231.373 319.44 227.487 331.949 217.77L335.834 214.752C349.321 204.275 366.484 199.722 383.391 202.135L387.379 202.705C403.168 204.959 419.15 200.158 431.084 189.577V189.577C442.498 179.456 457.642 174.602 472.813 176.203L482.934 177.271C500.195 179.093 517.488 174.118 531.143 163.402L532.464 162.364C546.157 151.618 563.507 146.647 580.813 148.51L584.316 148.887C603.393 150.94 622.431 144.684 636.572 131.715L649.332 120.012" stroke="white" stroke-opacity="0.16"/>
<path d="M-210.602 314.617L-193.041 319.186C-177.055 323.345 -160.044 319.531 -147.363 308.946L-144.598 306.638C-133.832 297.651 -119.43 294.326 -105.814 297.684V297.684C-91.7257 301.159 -76.8294 297.473 -65.9861 287.83L-62.6751 284.886C-52.7157 276.029 -38.9886 272.736 -26.0948 276.11L-24.1153 276.628C-11.5608 279.914 1.79282 276.251 10.9136 267.019L12.6705 265.241C21.274 256.533 34.0631 253.441 45.6943 257.257V257.257C57.4103 261.101 70.2926 257.935 78.8914 249.097L81.2684 246.654C89.4528 238.242 101.85 235.492 112.824 239.655V239.655C123.263 243.615 135.043 241.332 143.247 233.759L148.795 228.637C158.68 219.512 172.364 215.722 185.535 218.462L189.305 219.246C203.844 222.271 218.971 218.558 230.458 209.146L233.565 206.6C246.207 196.241 262.782 192.006 278.843 195.029V195.029C294.41 197.959 310.486 194.073 322.996 184.355L326.88 181.338C340.368 170.861 357.531 166.308 374.438 168.721L378.426 169.291C394.215 171.545 410.197 166.744 422.131 156.163V156.163C433.545 146.042 448.689 141.188 463.86 142.789L473.981 143.857C491.242 145.679 508.535 140.704 522.19 129.988L523.511 128.95C537.204 118.204 554.554 113.232 571.86 115.096L575.362 115.473C594.44 117.526 613.478 111.27 627.619 98.3009L640.379 86.5976" stroke="white" stroke-opacity="0.16"/>
<path d="M-192.697 381.441L-175.136 386.01C-159.15 390.169 -142.14 386.356 -129.459 375.77L-126.693 373.462C-115.927 364.475 -101.526 361.151 -87.9101 364.509V364.509C-73.8214 367.983 -58.9251 364.298 -48.0818 354.655L-44.7708 351.71C-34.8114 342.853 -21.0843 339.56 -8.19048 342.934L-6.21097 343.452C6.34352 346.738 19.6971 343.075 28.8179 333.843L30.5748 332.065C39.1783 323.357 51.9674 320.265 63.5986 324.082V324.082C75.3146 327.925 88.1969 324.759 96.7957 315.921L99.1727 313.478C107.357 305.066 119.755 302.317 130.728 306.479V306.479C141.167 310.439 152.947 308.156 161.151 300.583L166.699 295.461C176.585 286.336 190.268 282.547 203.439 285.286L207.209 286.071C221.749 289.095 236.876 285.382 248.362 275.97L251.47 273.424C264.111 263.066 280.686 258.83 296.747 261.853V261.853C312.314 264.784 328.391 260.897 340.9 251.18L344.785 248.162C358.272 237.685 375.435 233.132 392.342 235.546L396.33 236.115C412.119 238.369 428.101 233.568 440.035 222.987V222.987C451.449 212.866 466.593 208.013 481.764 209.613L491.885 210.681C509.147 212.503 526.439 207.528 540.094 196.812L541.416 195.774C555.109 185.028 572.458 180.057 589.764 181.92L593.267 182.297C612.344 184.35 631.382 178.094 645.523 165.125L658.283 153.422" stroke="white" stroke-opacity="0.16"/>
</g>
</svg>
